<svg xmlns="http://www.w3.org/2000/svg" width="273.147" height="273.147" viewBox="0 0 273.147 273.147">
  <path id="Path_274" data-name="Path 274" d="M8,273.147a8,8,0,0,1-8-8V168.05a8.006,8.006,0,0,1,.212-1.828L32.755,27.514a8,8,0,0,1,7.79-6.174H75.222V8a8,8,0,0,1,8-8h106.7a8,8,0,0,1,8,8V21.34H232.6a8,8,0,0,1,7.791,6.174l32.543,138.708a8.008,8.008,0,0,1,.211,1.828v97.095a8,8,0,0,1-8,8Zm8-16H257.143V176.052H190.355l-8.846,26.537a8,8,0,0,1-7.592,5.472H99.229a8,8,0,0,1-7.592-5.472l-8.846-26.537H16Zm43.213-97.1H88.559a8,8,0,0,1,7.592,5.472L105,192.056H168.15L177,165.519a8,8,0,0,1,7.592-5.472H213.93V122.7H59.217Zm138.708-106.7h8a8,8,0,0,1,8,8V106.7h8a8,8,0,0,1,8,8v45.346h25.113L226.26,37.345H197.925ZM18.1,160.047H43.213V114.7a8,8,0,0,1,8-8h8V61.351a8,8,0,0,1,8-8h8v-16H46.887ZM75.222,106.7h122.7V69.354H75.222Zm16-53.348h90.694V16H91.227Zm8,186.721a8,8,0,1,1,0-16h74.688a8,8,0,1,1,0,16Z"/>
</svg>
