<svg xmlns="http://www.w3.org/2000/svg" width="134.328" height="135.398" viewBox="0 0 134.328 135.398">
  <g id="witch-hat" transform="translate(-1.965)">
    <path id="Path_359" data-name="Path 359" d="M107.147,332.38c17.6,4.2,29.146,11.24,29.146,19.215,0,12.872-30.07,23.308-67.164,23.308S1.965,364.468,1.965,351.6c0-8.2,12.21-15.414,30.666-19.568l30.511-2.9H93.357Z" transform="translate(0 -239.505)" fill="#bd80e1"/>
    <g id="Group_143" data-name="Group 143" transform="translate(1.965 0)">
      <g id="Group_139" data-name="Group 139">
        <g id="XMLID_171_">
          <g id="Group_136" data-name="Group 136">
            <path id="Path_360" data-name="Path 360" d="M112.86,333.906q-2.734-.814-5.713-1.527l-13.79-3.254H63.141l-30.511,2.9c-18.455,4.154-30.665,11.366-30.665,19.568,0,12.872,30.07,23.308,67.164,23.308a183.184,183.184,0,0,0,24.127-1.551q-4.111.177-8.366.18c-37.093,0-67.164-10.435-67.164-23.308,0-3.229,1.892-6.3,5.313-9.1a1.724,1.724,0,0,1,2.821,1.47q-.195,2.208-.332,4.452a8.481,8.481,0,0,0,4.891,8.18,99.9,99.9,0,0,0,22.457,7.348l.5.1,31.438.191.5-.092a99.536,99.536,0,0,0,23.765-7.667,8.421,8.421,0,0,0,4.892-7.858A120.152,120.152,0,0,0,112.86,333.906Z" transform="translate(-1.965 -239.504)" fill="#af66da"/>
            <path id="Path_361" data-name="Path 361" d="M123.46,108.371,178.9,107.6l9.758-13.817c-3.443-23.413-13.093-46.139-19.611-59.492a1.129,1.129,0,0,1,1.119-1.619l18.046,1.664a4.853,4.853,0,0,0,3.8-8.341L166.943,2.042a7.37,7.37,0,0,0-10.59.422c-8.1,9.1-35.391,42.845-42.57,91.524Z" transform="translate(-83.335 0)" fill="#cb97e7"/>
          </g>
          <g id="Group_138" data-name="Group 138" transform="translate(77.928 19.979)">
            <g id="Group_137" data-name="Group 137">
              <path id="Path_362" data-name="Path 362" d="M295.668,87.745a2.042,2.042,0,0,1-1.83-1.132c-3.141-6.305-5.383-10.124-5.405-10.162a2.042,2.042,0,0,1,3.519-2.073c.094.159,2.331,3.967,5.542,10.414a2.042,2.042,0,0,1-1.826,2.953Z" transform="translate(-288.151 -73.372)" fill="#af66da"/>
            </g>
          </g>
        </g>
      </g>
      <path id="Path_363" data-name="Path 363" d="M166.942,2.042a7.37,7.37,0,0,0-10.59.422c-8.1,9.1-35.392,42.846-42.571,91.526l3.888,8.339,9.058-3.418c7.42-48.1,34.369-81.406,42.409-90.438a7.311,7.311,0,0,1,2.486-1.819l.1-.042Z" transform="translate(-83.334 0)" fill="#bd80e1"/>
      <g id="XMLID_172_" transform="translate(28.993 93.777)">
        <g id="Group_140" data-name="Group 140">
          <path id="Path_364" data-name="Path 364" d="M110.173,344.706a93.757,93.757,0,0,0,21.474,7l9.835,2.47H153.1l8.52-2.3a93.49,93.49,0,0,0,22.658-7.287l.485-.2a116.487,116.487,0,0,1,1.247,14.1,2.985,2.985,0,0,1-1.732,2.78,93.659,93.659,0,0,1-22.462,7.254l-30.416-.185a94.036,94.036,0,0,1-21.229-6.952,2.983,2.983,0,0,1-1.729-2.895c.289-4.749.781-9.4,1.446-13.9Z" transform="translate(-108.438 -344.39)" fill="#bc7c63"/>
        </g>
      </g>
      <g id="XMLID_173_" transform="translate(51.956 97.581)">
        <g id="Group_141" data-name="Group 141">
          <path id="Path_365" data-name="Path 365" d="M223.185,363.419v16.994a5.06,5.06,0,0,1-5.059,5.059h-20.3a5.06,5.06,0,0,1-5.059-5.059V363.419a5.06,5.06,0,0,1,5.059-5.059h20.3A5.06,5.06,0,0,1,223.185,363.419Zm-8.169,12.8v-8.605a1.085,1.085,0,0,0-1.085-1.085H202.023a1.085,1.085,0,0,0-1.085,1.085v8.605a1.085,1.085,0,0,0,1.085,1.085h11.908A1.085,1.085,0,0,0,215.016,376.219Z" transform="translate(-192.769 -358.36)" fill="#fee97d"/>
        </g>
      </g>
      <g id="Group_142" data-name="Group 142" transform="translate(47.606 109.096)">
        <path id="Path_366" data-name="Path 366" d="M193.949,404.731H178.837a2.042,2.042,0,1,1,0-4.085h15.112a2.042,2.042,0,0,1,0,4.085Z" transform="translate(-176.795 -400.647)" fill="#fef0ae"/>
      </g>
    </g>
    <path id="Path_367" data-name="Path 367" d="M122.837,350.072a98.47,98.47,0,0,1-12.666-4.818l-.283-.111c-.664,4.5-1.157,9.148-1.446,13.9a2.983,2.983,0,0,0,1.729,2.895,99.45,99.45,0,0,0,11.253,4.38,2.974,2.974,0,0,1-.2-1.266C121.538,359.913,122.09,354.918,122.837,350.072Z" transform="translate(-77.48 -251.161)" fill="#aa6a51"/>
  </g>
</svg>
