<svg xmlns="http://www.w3.org/2000/svg" xmlns:xlink="http://www.w3.org/1999/xlink" width="147.526" height="160.637" viewBox="0 0 147.526 160.637">
  <defs>
    <radialGradient id="radial-gradient" cx="0.5" cy="0.5" r="11.127" gradientTransform="translate(0.71 -0.147) scale(0.032 1.25)" gradientUnits="objectBoundingBox">
      <stop offset="0" stop-color="#e5f0f9"/>
      <stop offset="0.99" stop-color="#e5f0f9"/>
    </radialGradient>
    <linearGradient id="linear-gradient" x1="44.801" y1="1.19" x2="44.948" y2="-0.074" gradientUnits="objectBoundingBox">
      <stop offset="0.005" stop-color="#0f0063"/>
      <stop offset="0.995" stop-color="#170083"/>
    </linearGradient>
    <linearGradient id="linear-gradient-2" x1="12.964" y1="1.134" x2="12.502" y2="-0.249" gradientUnits="objectBoundingBox">
      <stop offset="0" stop-color="#fdc130"/>
      <stop offset="1" stop-color="#faa868"/>
    </linearGradient>
    <linearGradient id="linear-gradient-3" x1="45.581" y1="0.059" x2="45.974" y2="1.618" xlink:href="#linear-gradient"/>
    <linearGradient id="linear-gradient-4" x1="331.891" y1="-4.331" x2="334.763" y2="2.09" xlink:href="#linear-gradient"/>
    <linearGradient id="linear-gradient-5" x1="19.491" y1="0.045" x2="19.772" y2="1.048" gradientUnits="objectBoundingBox">
      <stop offset="0" stop-color="#a9a8e1"/>
      <stop offset="0.975" stop-color="#9ba8e1"/>
    </linearGradient>
    <linearGradient id="linear-gradient-6" x1="111.316" y1="0.5" x2="112.316" y2="0.5" gradientUnits="objectBoundingBox">
      <stop offset="0.005" stop-color="#f44234"/>
      <stop offset="1" stop-color="#ff4e3e"/>
    </linearGradient>
    <linearGradient id="linear-gradient-7" x1="18.03" y1="0.217" x2="17.631" y2="0.907" xlink:href="#linear-gradient-6"/>
    <linearGradient id="linear-gradient-8" x1="124.774" y1="0.5" x2="125.774" y2="0.5" xlink:href="#linear-gradient-6"/>
    <linearGradient id="linear-gradient-9" x1="21.428" y1="-0.08" x2="21.271" y2="1.144" xlink:href="#linear-gradient"/>
    <linearGradient id="linear-gradient-10" x1="38.088" y1="0.5" x2="39.088" y2="0.5" xlink:href="#linear-gradient-6"/>
    <linearGradient id="linear-gradient-11" x1="66.046" y1="2.785" x2="66.281" y2="-0.693" xlink:href="#linear-gradient"/>
    <linearGradient id="linear-gradient-12" x1="16.532" y1="0.838" x2="16.741" y2="0.337" gradientUnits="objectBoundingBox">
      <stop offset="0" stop-color="#4c46d3"/>
      <stop offset="0.975" stop-color="#615ff4"/>
    </linearGradient>
    <linearGradient id="linear-gradient-13" x1="95.137" y1="0.5" x2="96.137" y2="0.5" xlink:href="#linear-gradient-5"/>
    <linearGradient id="linear-gradient-14" x1="70.309" y1="-0.453" x2="69.256" y2="1.719" xlink:href="#linear-gradient-5"/>
    <linearGradient id="linear-gradient-15" x1="16.259" y1="0.014" x2="16.213" y2="0.988" xlink:href="#linear-gradient-12"/>
    <linearGradient id="linear-gradient-16" x1="14.705" y1="-0.224" x2="15.388" y2="1.074" xlink:href="#linear-gradient-5"/>
    <linearGradient id="linear-gradient-17" x1="19.101" y1="1.04" x2="17.797" y2="-0.017" xlink:href="#linear-gradient"/>
    <linearGradient id="linear-gradient-18" x1="88.779" y1="0.5" x2="89.779" y2="0.5" xlink:href="#linear-gradient-6"/>
    <linearGradient id="linear-gradient-19" x1="12.672" y1="0.5" x2="13.672" y2="0.5" xlink:href="#linear-gradient-2"/>
  </defs>
  <g id="Group_101" data-name="Group 101" transform="translate(-11.878 -70.069)">
    <path id="Path_164" data-name="Path 164" d="M67.42,123.142c-.561.024-1.128.018-1.682.09a2.323,2.323,0,0,0-.691.344,2.292,2.292,0,0,0,.421.639c.286.221.684.3.958.533a4.932,4.932,0,0,1,.676.864,4.386,4.386,0,0,1-1.045.278c-.387.01-.776-.174-1.166-.192a.779.779,0,0,0-.623.254c-.074.141.064.479.211.626.3.3.708.486.985.8a3.634,3.634,0,0,1,.442.915,4.036,4.036,0,0,1-.994.119c-.327-.038-.629-.273-.956-.334a4.375,4.375,0,0,0-.92.021,6.206,6.206,0,0,0,.334.934c.114.218.389.352.5.57a9.223,9.223,0,0,1,.4,1.107c-.411-.047-.827-.075-1.233-.151-.154-.03-.277-.209-.435-.256-.37-.109-.753-.178-1.132-.263a7.763,7.763,0,0,0,.254,1.11c.131.338.423.616.533.958a.966.966,0,0,1-.129.752c-.066.092-.478.008-.676-.1-.27-.141-.465-.42-.731-.574a12.429,12.429,0,0,0-1.128-.53c.035.435.044.875.12,1.3.049.273.253.522.284.793a2.823,2.823,0,0,1-.129.779c-.276-.075-.621-.071-.816-.237-.356-.312-.6-.748-.943-1.084a1.988,1.988,0,0,0-.636-.277c-.092.239-.277.486-.257.715.047.5.243.994.276,1.5a.908.908,0,0,1-.352.671c-.09.065-.481-.131-.608-.3-.3-.407-.493-.893-.8-1.3-.139-.182-.434-.247-.657-.365a2.071,2.071,0,0,0-.3.633c-.034.39.09.8.024,1.182a4.281,4.281,0,0,1-.442,1,5.172,5.172,0,0,1-.71-.744c-.163-.253-.171-.605-.331-.864a5.181,5.181,0,0,0-.66-.744,5.481,5.481,0,0,0-.478.891c-.1.318-.028.7-.151,1a3.115,3.115,0,0,1-.582.721c-.187-.219-.454-.409-.544-.664-.14-.393-.116-.844-.247-1.241a2.754,2.754,0,0,0-.5-.679,3.031,3.031,0,0,0-.567.646c-.18.379-.213.833-.41,1.2-.126.23-.438.36-.667.536-.141-.225-.372-.44-.4-.679-.065-.474.028-.965-.031-1.439-.027-.229-.249-.435-.384-.654a2.1,2.1,0,0,0-.568.4c-.212.294-.3.69-.532.958a5.344,5.344,0,0,1-.923.705,5.4,5.4,0,0,1-.235-1.074c-.006-.359.178-.721.178-1.083a2.15,2.15,0,0,0-.264-.712,1.859,1.859,0,0,0-.636.283c-.332.345-.565.79-.915,1.111-.189.175-.536.18-.813.262a2.2,2.2,0,0,1-.143-.776c.083-.411.332-.787.414-1.2a3.167,3.167,0,0,0-.071-.906,3.8,3.8,0,0,0-.857.321c-.372.254-.663.623-1.038.871a.5.5,0,0,1-.773-.626c.161-.416.459-.779.629-1.194a3.8,3.8,0,0,0,.133-.908,3.451,3.451,0,0,0-.9.119c-.36.15-.653.461-1.016.6a2.722,2.722,0,0,1-.864.042,2.634,2.634,0,0,1,.158-.91c.226-.384.608-.674.861-1.045a1.845,1.845,0,0,0,.148-.68,1.928,1.928,0,0,0-.741-.119c-.407.1-.775.379-1.183.454a3.2,3.2,0,0,1-1-.13,3.841,3.841,0,0,1,.387-.861c.2-.261.558-.4.769-.659a4.825,4.825,0,0,0,.458-.878,4.243,4.243,0,0,0-.909-.14c-.389.024-.777.2-1.163.2a2.466,2.466,0,0,1-.8-.3,2.5,2.5,0,0,1,.454-.736c.351-.277.8-.431,1.163-.693a2.052,2.052,0,0,0,.4-.584c-.219-.137-.428-.365-.66-.392-.416-.044-.857.1-1.267.037a3.442,3.442,0,0,1-.915-.441,3.153,3.153,0,0,1,.657-.683c.363-.2.813-.254,1.185-.447.213-.11.345-.376.512-.57a2.2,2.2,0,0,0-.635-.448c-.491-.127-1.014-.124-1.5-.257-.2-.054-.462-.327-.461-.5a.73.73,0,0,1,.458-.506c.485-.146,1.006-.155,1.494-.3.23-.068.41-.31.612-.472-.175-.187-.318-.447-.534-.547-.434-.2-.926-.274-1.354-.485-.212-.1-.332-.4-.495-.6.213-.147.417-.387.649-.417.472-.066.965.021,1.439-.035a2.19,2.19,0,0,0,.676-.366A2.486,2.486,0,0,0,36.94,116c-.29-.219-.69-.3-.96-.532a4.764,4.764,0,0,1-.659-.874,4.759,4.759,0,0,1,1.066-.257c.386-.008.776.168,1.166.181.212.006.548-.115.608-.266a.759.759,0,0,0-.233-.626c-.365-.352-.823-.609-1.172-.974-.16-.167-.153-.495-.221-.748.232-.059.482-.2.693-.16.44.09.847.327,1.286.413a3.261,3.261,0,0,0,.9-.074,3.241,3.241,0,0,0-.273-.793c-.2-.3-.55-.513-.727-.824a3.68,3.68,0,0,1-.252-.974,4.02,4.02,0,0,1,1.018.079c.366.127.67.431,1.033.574a2.207,2.207,0,0,0,.762.013,2.429,2.429,0,0,0-.078-.762c-.16-.358-.476-.65-.609-1.014a3.5,3.5,0,0,1-.068-1,6.405,6.405,0,0,1,.992.266c.222.1.366.368.587.479a9.493,9.493,0,0,0,1.064.416,7.107,7.107,0,0,0-.081-1.074c-.078-.355-.305-.68-.365-1.035a2.145,2.145,0,0,1,.156-.763c.254.074.574.074.749.233.372.342.643.79,1.005,1.145a.487.487,0,0,0,.876-.418c-.049-.5-.233-1-.271-1.5-.017-.235.175-.488.273-.731.237.109.546.158.7.341.269.321.4.749.664,1.08a3.758,3.758,0,0,0,.724.578,4.179,4.179,0,0,0,.351-.936c.049-.385-.078-.794-.024-1.18.033-.242.256-.457.394-.684.23.171.54.3.673.522.208.36.262.81.452,1.183a3.108,3.108,0,0,0,.582.626,3.053,3.053,0,0,0,.5-.773c.17-.619.252-1.262.372-1.894h.679c.157.654.29,1.315.483,1.956a2.532,2.532,0,0,0,.441.64,2.843,2.843,0,0,0,.6-.577c.164-.288.167-.67.335-.956a6.166,6.166,0,0,1,.721-.838,4.648,4.648,0,0,1,.458.984c.075.379-.03.793.021,1.182a2,2,0,0,0,.324.618c.221-.127.513-.206.645-.394.305-.438.506-.949.8-1.391.1-.156.441-.324.553-.266a.786.786,0,0,1,.36.581c-.016.5-.178,1-.2,1.505a2.557,2.557,0,0,0,.246.8,2.763,2.763,0,0,0,.684-.351c.245-.228.376-.585.632-.79a6.086,6.086,0,0,1,1.022-.547,6.461,6.461,0,0,1,.04,1.178c-.044.325-.278.623-.338.951a2.48,2.48,0,0,0,.1.76,2.2,2.2,0,0,0,.739-.191c.41-.293.746-.693,1.162-.98a.754.754,0,0,1,.69-.051.74.74,0,0,1,.095.676c-.2.465-.516.878-.717,1.34a2.216,2.216,0,0,0-.044.762,2.6,2.6,0,0,0,.761-.042c.284-.106.509-.376.8-.476a9.6,9.6,0,0,1,1.23-.266,9.489,9.489,0,0,1-.431,1.248c-.133.269-.433.452-.588.717a2.347,2.347,0,0,0-.157.671c.25.048.52.187.739.127.459-.123.879-.4,1.34-.512a2.145,2.145,0,0,1,.835.177,2.243,2.243,0,0,1-.26.746c-.249.3-.629.488-.882.785a4.37,4.37,0,0,0-.459.872,4.276,4.276,0,0,0,.92.143c.36-.021.718-.212,1.076-.206a2.959,2.959,0,0,1,.875.3,2.7,2.7,0,0,1-.448.741c-.3.25-.708.363-1.011.608a3.569,3.569,0,0,0-.543.738,2.961,2.961,0,0,0,.8.3c.561.038,1.129-.007,1.693-.018v1.019c-.53.187-1.071.343-1.58.574-.194.088-.428.358-.418.529s.3.4.5.442a13.3,13.3,0,0,0,1.5.154v1.19a14.39,14.39,0,0,0-1.481.276c-.2.057-.472.3-.476.459s.242.43.435.507c.491.194,1.014.31,1.522.458Zm-22.147,6.7c3.292,2.478,9.241,2.215,11.846-.049-.359-.495-.72-.992-1.107-1.528a8.517,8.517,0,0,1-4.825,1.243c-1.628-.165-3.227-.619-4.973-.974C45.985,128.849,45.628,129.347,45.273,129.841Zm-5.116-12.379c-1.431,3.138.526,9.25,3.593,11.262.37-.519.741-1.039,1.1-1.544-2.848-3.6-3.008-4.1-2.935-8.712a.73.73,0,0,0-.341-.548A12.732,12.732,0,0,0,40.157,117.463ZM58.7,128.757c3.848-3.059,4.685-8.751,3.538-11.29-.269.078-.534.182-.807.233-.762.144-1.019.457-.891,1.33a8.386,8.386,0,0,1-1.1,5.643c-.533.886-1.2,1.689-1.838,2.571Zm3.011-13.119c-1.151-3.617-6.013-7.12-9.584-6.883a8.42,8.42,0,0,1-.007.981c-.083.707.181.95.9,1.176a12.563,12.563,0,0,1,3.814,1.718,27.186,27.186,0,0,1,3.3,3.528Zm-20.98-.008c.334.12.687.216,1.014.369.588.273.922.163,1.245-.461a7.8,7.8,0,0,1,3.376-3.473c1.214-.618,2.527-1.042,3.835-1.568v-1.77C46.455,108.7,41.634,112.221,40.734,115.629Zm7.39,10.287a6.577,6.577,0,0,0,6.138-.03c-.38-.536-.718-.985-1.019-1.455A.969.969,0,0,0,52,123.914a7.707,7.707,0,0,1-1.846-.021c-.223,0-.54.007-.653.146C49.039,124.6,48.635,125.208,48.124,125.916Zm-3.22-7.03a5.748,5.748,0,0,0,1.634,5.7c2.342-1.209.881-3.008.745-4.621Zm12.635.106c-.524.167-1.047.366-1.589.5a.957.957,0,0,0-.872,1.015,8.828,8.828,0,0,1-.572,1.751.925.925,0,0,0-.016.667c.39.613.844,1.185,1.274,1.774A5.769,5.769,0,0,0,57.539,118.992Zm-.557-1.812a5.808,5.808,0,0,0-4.849-3.431,12.062,12.062,0,0,1-.011,1.412,1.209,1.209,0,0,0,.909,1.517c.447.15.779.623,1.193.91a1.075,1.075,0,0,0,.7.253C55.6,117.676,56.259,117.42,56.982,117.18Zm-11.5-.209c1.846,1.856,3.121.093,4.562-.609.107-.876.216-1.753.341-2.768A6.67,6.67,0,0,0,45.478,116.971Z" transform="translate(9.326 13.727)" fill="#9494d0" fill-rule="evenodd" opacity="0.5"/>
    <path id="Path_165" data-name="Path 165" d="M159.4,182.734a2.15,2.15,0,0,1-1.876,2.345H13.754a2.151,2.151,0,0,1-1.876-2.345h0a2.15,2.15,0,0,1,1.876-2.344H157.528a2.149,2.149,0,0,1,1.876,2.344Z" transform="translate(0 45.627)" fill-rule="evenodd" fill="url(#radial-gradient)" style="mix-blend-mode: multiply;isolation: isolate"/>
    <g id="Group_100" data-name="Group 100" transform="translate(14.975 70.069)">
      <path id="Path_166" data-name="Path 166" d="M24.184,171.67c.363-8.457.817-13.674,1.62-17.448a13.857,13.857,0,0,0,4.395,3.164,21.685,21.685,0,0,1,1.014-2.653,23.211,23.211,0,0,1-4.31-5.588l.17-.811s1.391,1.64,7.7,1.887S41.2,148.7,41.2,148.7s-.308,7.246-2.088,7.806c-.058.016-.113.038-.172.057-1.607.5-4.912.6-5.717,4.392-.834,3.942-3.149,14.65-4.123,20.585-.6,3.613-1.134,6.828-1.466,8.791-1.349.2-2.783.445-4.142.7C23.607,187.352,23.9,178.363,24.184,171.67Z" transform="translate(-10.172 -37.7)" fill="url(#linear-gradient)"/>
      <path id="Path_167" data-name="Path 167" d="M72.137,142.589a29.606,29.606,0,0,0,5.813,3.46c2.72,1.083,5.068,1.918,6.706-.122s2.751-4.453,4.851-7.232,3.09-4.579,6.429-5.025a52.416,52.416,0,0,1,8.539-.126c.143.845.417,1.5.889,1.535.53.04.741-.626.823-1.463.479.017.958.037,1.432.054,4.048.139,5.349.356,5.626.172a12.318,12.318,0,0,0,2.038-9.8,26.451,26.451,0,0,0-5.748-10.476,12.3,12.3,0,0,0-2.257-1.978,24.881,24.881,0,0,0,1.022-2.349c.526-1.391.649-1.792.649-1.792,2.04,1.357,8,6.337,10.725,11.993s3.121,10.446,1.7,14.927-4.05,6.118-5.285,7.541-1.855,3.4-2.2,6.616-.464,9.177-.464,9.177a21.01,21.01,0,0,1-8.654,1.483c-5.315-.09-8.405-1.142-8.559-1.3a.507.507,0,0,1-.044-.187c-.136-1.056-.262-6.32-.515-8.931-.277-2.874,0-5.348-.433-5.657s-3.246,3.525-5.191,6.214-3.557,4.82-6.739,5.192-5.595-1.886-7.884-3.37a13.484,13.484,0,0,1-3.425-3.09Z" transform="translate(9.885 -54.61)" fill="url(#linear-gradient-2)"/>
      <path id="Path_168" data-name="Path 168" d="M35.961,133.687c.018-.478,0-.875.008-1.009l-.006-.016a2.525,2.525,0,0,0,1.766-1.421,7.62,7.62,0,0,0,.974-4.268c-.139-1.341-.622-2.872-3.361-2.851s-3.152,1.855-3.011,4.624c.1,2.106.615,3.041,1.411,3.5-.008.139-.035.756,0,1.554-.551.033-1.114.072-1.686.113a12.126,12.126,0,0,0-9.837,6.449,11.2,11.2,0,0,1-.147-2.051c.034-1.142,1.084-2.906,3.34-4.514s3.028-3.863,3.617-6.336,1.7-5.287,4.817-5.41a5.031,5.031,0,0,1,5.413,4.048,20.022,20.022,0,0,1-.223,7.616C38.075,133.655,37.051,133.654,35.961,133.687Z" transform="translate(-10.762 -48.571)" fill="url(#linear-gradient-3)"/>
      <path id="Path_169" data-name="Path 169" d="M26.56,136.311c.482.144.574,1.751.705,4.425a3.628,3.628,0,0,1-1.756-.283,6.949,6.949,0,0,1-.633-.311c.016-.086.028-.171.049-.245C25.326,137.979,26.035,136.155,26.56,136.311Z" transform="translate(-9.6 -42.676)" fill="url(#linear-gradient-4)"/>
      <path id="Path_170" data-name="Path 170" d="M22.088,138.438a11.976,11.976,0,0,1,.671-1.473,12.126,12.126,0,0,1,9.837-6.449c.573-.041,1.135-.081,1.686-.113,0,.042,0,.083.007.126.044.977.393,2.111,1.366,2.133.662.02.818-1.357.851-2.373,1.09-.034,2.115-.033,3.07.031a9.148,9.148,0,0,1,4.454,1.226c2.412,1.606,4.174,5.745,5.968,9.224s3.613,7.156,5.687,9.69,4.326,4.48,5.366,4.883l-4.316.329c-3.585-1.993-9.18-7.035-10.757-10.839s-2.781-6.426-3-6.457-.554.493.124,2.395a3.909,3.909,0,0,1-.679,4.063c-.681.769-1.022,1.456-.9,4.236s.807,7.109.807,7.109-.126,1.76-6.43,1.515-7.7-1.887-7.7-1.887a67.915,67.915,0,0,0,.8-11.775c-.01-.276-.025-.539-.038-.8-.131-2.673-.223-4.28-.705-4.425-.524-.156-1.234,1.668-1.634,3.586-.021.074-.034.158-.049.245a24.6,24.6,0,0,0,.233,10.978,14.645,14.645,0,0,0,1.22,3,23.212,23.212,0,0,0,4.31,5.588,21.684,21.684,0,0,0-1.014,2.653,13.858,13.858,0,0,1-4.395-3.164,25.445,25.445,0,0,1-4.391-6.353C20.02,150.269,20.42,142.854,22.088,138.438Z" transform="translate(-11.308 -45.172)" fill="url(#linear-gradient-5)"/>
      <path id="Path_171" data-name="Path 171" d="M30.331,129.264a3.092,3.092,0,0,0,.834.315,3.609,3.609,0,0,0,1.388.1l.006.016c-.006.134.01.532-.008,1.009-.033,1.016-.189,2.393-.851,2.373-.973-.023-1.322-1.156-1.366-2.133,0-.042-.007-.083-.007-.126C30.3,130.02,30.322,129.4,30.331,129.264Z" transform="translate(-7.351 -45.587)" fill="#ecb7b0"/>
      <path id="Path_172" data-name="Path 172" d="M29.334,128.138c.107,2.108.615,3.043,1.411,3.5a3.154,3.154,0,0,0,.834.315,3.609,3.609,0,0,0,1.388.1,2.516,2.516,0,0,0,1.766-1.421c.052-.085.1-.174.144-.264a7.21,7.21,0,0,0,.553-1.4,7.481,7.481,0,0,0,.28-2.605c-.144-1.347-.625-2.871-3.36-2.853S29.193,125.371,29.334,128.138Z" transform="translate(-7.766 -47.964)" fill="#ecb7b0"/>
      <path id="Path_173" data-name="Path 173" d="M58.129,137.745s-.479-2.718,0-3.028.633,2.409.633,2.318.834-2.751,1.175-2.782-.372,3.028-.372,2.9.8-2.749,1.422-2.72-.71,3.306-.71,3.306S60.9,135.8,61.42,136s-.869,2.363-.869,2.363.582-1.45.987-1.111-.858,1.869-.858,1.869a10.842,10.842,0,0,1-1.483-.727C58.609,138.023,58.129,137.745,58.129,137.745Z" transform="translate(4.065 -43.523)" fill="#ecb7b0"/>
      <path id="Path_174" data-name="Path 174" d="M97.461,112.921c.154-.311,1.6-2.658,1.671-4.142s-.161-2.806-.6-3.107-.451,1.593-.451,1.593a5.1,5.1,0,0,0-1.11-2.567c-.859-.765-1.245-.37-1.245-.37a9.531,9.531,0,0,1,1.554,3.429c.139,1.439-.734,4.313-.629,4.637S97.461,112.921,97.461,112.921Z" transform="translate(19.702 -55.942)" fill="#ecb7b0"/>
      <path id="Path_175" data-name="Path 175" d="M76.329,181.066A6.91,6.91,0,0,0,78,180.7s-.01-.085-.028-.228c-.7-.286,2.612,3.742,2.747,1.833.062-.864-2.81.7-4.234.332a1.994,1.994,0,0,1-1.617-2.146A1.777,1.777,0,0,0,76.329,181.066Z" transform="translate(11.071 -24.414)" fill="url(#linear-gradient-6)"/>
      <g id="Group_92" data-name="Group 92" transform="translate(51.856 60.732)">
        <path id="Path_176" data-name="Path 176" d="M67.244,123.382h0Z" transform="translate(-44.094 -108.751)" fill="#f44234"/>
        <path id="Path_177" data-name="Path 177" d="M52.237,153.91c.834-5.008,2.6-14.311,4.358-18.423s3.585-5.964,6.645-6.768a40.018,40.018,0,0,1,7.79-1s.154,1.4,1.276,1.524,1.59-1.558,1.6-1.579l.621,0c3.583.064,5.748.865,7.909-.526s3.3-5.485,3.226-9.106l4.03-5a61.891,61.891,0,0,1,.6,10.435,13.678,13.678,0,0,1-4.946,9.766c-2.41,2.009-3.894,3.152-4.2,4.942s-.339,6.556-.4,9.366.155,7.573.155,7.573-.038.018-.11.048a20.972,20.972,0,0,1-8.421,1.717c-4.173-.222-8.869-1.21-9.3-2.228,0,0,0-.078.008-.215h0c.065-1.429.445-9.716.671-12.705.247-3.277.834-5.346-.093-5.656s-1.732,2.318-2.5,5.192-5.749,18.36-5.749,18.36a6.389,6.389,0,0,1-2.874,2.072l-1.763.553S51.4,158.915,52.237,153.91Z" transform="translate(-50.753 -113.032)" fill="url(#linear-gradient-7)"/>
      </g>
      <path id="Path_178" data-name="Path 178" d="M65.87,123.811s-.082-1.1-.137-1.809a3.21,3.21,0,0,0,.786.078,3.166,3.166,0,0,0,.694-.095c-.061.854-.233,1.976.017,1.975h.741s-.475,1.7-1.6,1.58-1.276-1.52-1.276-1.524h0Z" transform="translate(7.036 -48.597)" fill="#ecb7b0"/>
      <path id="Path_179" data-name="Path 179" d="M62.845,120.476c.065.927,1.178.711,1.235.834.013.025.045.177.112.4a5.048,5.048,0,0,0,.623,1.33,2.971,2.971,0,0,0,1.85,1.284,3.211,3.211,0,0,0,1.48-.018c2.142-.515,2.3-3.09,2.3-3.09.636.155.934-.187,1.028-1.049s-.25-1.084-.465-.957c-.078.5-.619,1.207-.563.277s-.148-2.133-.919-2.536-.992.369-1.734.526-1.421-.492-1.791-.958-1.141.218-1.7,1.081a4.171,4.171,0,0,0-.372,2.289c-.016.107-.095.038-.184-.236C63.555,119.419,62.784,119.548,62.845,120.476Z" transform="translate(6.102 -50.919)" fill="#ecb7b0"/>
      <path id="Path_180" data-name="Path 180" d="M65.514,121.6v0C65.513,121.586,65.513,121.588,65.514,121.6Z" transform="translate(7.207 -48.761)" fill="#ecb7b0"/>
      <path id="Path_181" data-name="Path 181" d="M56.112,181.2a18.817,18.817,0,0,0,1.979-.271h0c.187,1.052.126,1.453-.71,1.546s-4.391.927-4.853.341c-.431-.547.789-1.542,1.856-1.956C54.555,181.065,55.086,181.287,56.112,181.2Z" transform="translate(1.801 -24.246)" fill="url(#linear-gradient-8)"/>
      <path id="Path_182" data-name="Path 182" d="M57.3,172.083c.649-4.819,3.431-21.633,3.677-23.673s.842-6.068.844-6.087c0,.137-.008.215-.008.215.434,1.018,5.13,2.006,9.3,2.228a20.972,20.972,0,0,0,8.421-1.717c-.034.018,1.284,11.54,1.686,15.374s2.564,19.379,3.306,22.872c.683,3.21,1.965,13.33,2.167,14.95.018.143.028.228.028.228a6.91,6.91,0,0,1-1.669.366,1.777,1.777,0,0,1-1.463-.574l-.011-.01c-.257-.277-1.71-4.45-3.718-9.735s-3.924-12.611-5.068-17.062-3.031-14.744-3.37-16.227-.524-3.369-.8-3.093A115.692,115.692,0,0,0,67,162.223c-.99,4.173-5.965,22.069-5.965,22.069L57.7,196.838l-.155.034a18.818,18.818,0,0,1-1.979.271c-1.026.083-1.558-.139-1.727-.341a.265.265,0,0,1-.065-.115C53.739,196.472,56.645,176.9,57.3,172.083Z" transform="translate(2.35 -40.186)" fill="url(#linear-gradient-9)"/>
      <path id="Path_183" data-name="Path 183" d="M64.276,115.619a4.016,4.016,0,0,1,5.223-.524c1.917,1.39,1.5,3.829,1.33,4.946-.079.5-.619,1.207-.564.277s-.147-2.133-.917-2.535-.992.368-1.733.524-1.422-.492-1.792-.958-1.142.218-1.7,1.083a4.174,4.174,0,0,0-.37,2.287c-.016.11-.093.037-.185-.236a6.672,6.672,0,0,1-.264-1.4A4.575,4.575,0,0,1,64.276,115.619Z" transform="translate(6.279 -51.749)" fill="#3a28b1"/>
      <path id="Path_184" data-name="Path 184" d="M90.344,73.508c-3.661-1.346-4.4,2.966-4.4,2.966s-.327-.51-.628-.557-.67.278-.532,1.185a1.047,1.047,0,0,0,.927.95,3.116,3.116,0,0,0,.779,2.187,5.252,5.252,0,0,1-.756,2.471,2.782,2.782,0,0,1-.727.891,9.522,9.522,0,0,0-4.95,1.489l-.095.01c-3.014.209-3.988-1.3-4.614-3.362s.372-3.989,1.693-4.15,2.038.392,4.334-1.135,2.272-3.663,3.9-5.192a4.064,4.064,0,0,1,5.423-.3,2.6,2.6,0,0,1,.8,3.754l-.02.02A2.184,2.184,0,0,0,90.344,73.508Z" transform="translate(11.195 -70.069)" fill="url(#linear-gradient-10)"/>
      <path id="Path_185" data-name="Path 185" d="M89.76,73.527s-1.194.025-1.4-.242.455-.283.455-.283-1.368-.192-1.4-.541c-.024-.291,1.4-.116,1.4-.116s-1.7-.324-1.757-.6,1.938,0,1.938,0-1.815-.375-1.853-.441c-.095-.163.312-.373,1.227-.325a11.985,11.985,0,0,1,2.506.442l.066,3.361A2.806,2.806,0,0,1,89.76,73.527Z" transform="translate(16.116 -69.696)" fill="#ecb7b0"/>
      <path id="Path_186" data-name="Path 186" d="M55.194,163.6h0c1.238.017,2.311.284,2.471,1.248H51.551a1.613,1.613,0,0,1,.123-1.39h0a3.485,3.485,0,0,0,1.36.281A6.545,6.545,0,0,0,55.194,163.6Z" transform="translate(1.389 -31.443)" fill="#f44234"/>
      <path id="Path_187" data-name="Path 187" d="M53.281,152.7c.359.9,1.578,4.873,2.438,7.762.864,2.908,1.73,7.541,1.73,7.541s-.054.018-.157.045a6.545,6.545,0,0,1-2.16.14,3.486,3.486,0,0,1-1.36-.281.64.64,0,0,1-.216-.212c-.124-.156-3.247-6.955-4.7-9.707-1.08-2.044-2.054-3.76-2.486-4.508A24.924,24.924,0,0,0,53.281,152.7Z" transform="translate(-0.71 -35.892)" fill="url(#linear-gradient-11)"/>
      <path id="Path_188" data-name="Path 188" d="M29.5,159.666c1.391-3.926,4.266-6.707,7.756-7.016a71.552,71.552,0,0,1,8.1.239c.154.7.369,1.25.671,1.151.339-.109.493-.54.548-1.091a82.582,82.582,0,0,0,8.483.01c7.54-.435,9.455-1.515,11.744-5.1s3.616-10.352,3.647-11,2.684,1.016,2.68,1.107a53.275,53.275,0,0,1,0,6.867,19.766,19.766,0,0,1-1.971,6c-1.3,2.5-2.518,5.609-7.478,7.666a19.973,19.973,0,0,1-2.47.83,24.923,24.923,0,0,1-6.91.78l-.171,0c-.588,0-.619,2.164-.834,4.481s-.681,10.943-.681,10.943-.742,1.357-6.18,1.637a20.034,20.034,0,0,1-9.243-1.637s.061-5.008.184-8.284.218-6.739-.679-6.955-1.668,1.606-2.44,3.894a41.931,41.931,0,0,0-1.64,11.618,33.388,33.388,0,0,0,1.545,8.284l-2.348,2.536c-1.76-2.379-4.358-9.737-4.607-14.123A33.764,33.764,0,0,1,29.5,159.666Z" transform="translate(-8.646 -42.509)" fill="url(#linear-gradient-12)"/>
      <path id="Path_189" data-name="Path 189" d="M68.6,121.827a1.8,1.8,0,0,0,.915.813,5.407,5.407,0,0,0,2.472.711.834.834,0,0,0,.218-.213h0a2.208,2.208,0,0,0,0,1.48c.154.338,2.658,1.979,2.225,2.846s-3.711-.628-5.071-1.487-1.947-1.695-1.947-2.472C67.414,122.982,68.135,122.25,68.6,121.827Z" transform="translate(7.993 -48.662)" fill="url(#linear-gradient-13)"/>
      <path id="Path_190" data-name="Path 190" d="M81.976,76.171a1.046,1.046,0,0,0,.927.95,3.124,3.124,0,0,0,.777,2.187c.04.042.068.081.109.117a3.325,3.325,0,0,0,1.4.779,3.706,3.706,0,0,0,.734.124,2.313,2.313,0,0,0,2.267-1.561,5.832,5.832,0,0,0,.379-1,13.656,13.656,0,0,0,.308-1.34,4.565,4.565,0,0,0-.218-2.626,2.194,2.194,0,0,0-1.125-1.22c-3.664-1.346-4.4,2.966-4.4,2.966s-.327-.51-.629-.557S81.836,75.265,81.976,76.171Z" transform="translate(14.003 -69.139)" fill="#ecb7b0"/>
      <path id="Path_191" data-name="Path 191" d="M84.072,80.372c-.031-.089-.479-1.792-.8-3.026a3.312,3.312,0,0,0,1.407.777,3.165,3.165,0,0,0,.731.122c.076.9-.167,2.086-.082,2.15s.605-.16.717.006a.122.122,0,0,1,.027.076c0,.3-.27,2.748-.752,2.863s-2.009-2.482-2.1-2.782a.072.072,0,0,1,0-.059C83.273,80.3,84.113,80.5,84.072,80.372Z" transform="translate(14.525 -67.059)" fill="#ecb7b0"/>
      <path id="Path_192" data-name="Path 192" d="M91.713,124.865a4.126,4.126,0,0,0,2.443,0c.744.464,3.619,2.872,3.493,3.431s-2.967-.123-5.069-.8-3.462-.988-3.677-1.267.228-1.368.625-2.078c-.025.123-.038.192-.038.192A12.342,12.342,0,0,0,91.713,124.865Z" transform="translate(16.857 -47.703)" fill="url(#linear-gradient-14)"/>
      <path id="Path_193" data-name="Path 193" d="M68.347,132.715c.311-.587,7.037-11.5,8.3-14.308A54.089,54.089,0,0,0,80.4,108.145c1.114-4.514,2.413-8.657,3.031-10.88a10.493,10.493,0,0,1,1.6-3.462,13,13,0,0,0,7.417,2.6,17.934,17.934,0,0,0,6.422-1.715.493.493,0,0,1-.028-.062c.653,1.214,4.458,7.811,6.006,9.96a36.155,36.155,0,0,1,3.757,6.86c.3,1.021-.139,4.335-1.005,8.169s-4.915,17.8-4.915,17.8a4.126,4.126,0,0,1-2.443,0,12.342,12.342,0,0,1-2.224-.526s.013-.069.038-.192c.189-.982,1.1-5.661,1.787-9.728.77-4.576,1.883-9.86,1.7-12.117s-3.493-6.46-5.069-8.872-4.019-4.049-4.883-2.687-5.164,11.125-6.647,13.969-4.71,6.543-7.293,9.675c-1.7,2.055-4.888,6.739-5.78,7.792a.834.834,0,0,1-.218.213,5.407,5.407,0,0,1-2.472-.711,1.8,1.8,0,0,1-.915-.813A.829.829,0,0,1,68.347,132.715Z" transform="translate(8.327 -60.253)" fill="url(#linear-gradient-15)"/>
      <path id="Path_194" data-name="Path 194" d="M55.646,145.871c.6.681,1.142,1.432.775,1.415s-1.028-.351-1.394-.332-.9,1.125-1.066,2.146-.278,1.971-.625,1.831-.209-1.737-.209-1.737-.242,2.484-.565,2.553-.315-2.53-.315-2.53-.069,1.876-.418,1.971-.438-2.2-.438-2.2-.213,1.619-.465,1.576c-.348-.052-.12-2.079-.12-2.079s.769-.329,2.183-1.047S55.341,145.522,55.646,145.871Z" transform="translate(1.094 -38.744)" fill="#ecb7b0"/>
      <path id="Path_195" data-name="Path 195" d="M49.41,148.16c.133.141.68,1.887.4,2.143s-1.137-1.8-1.137-1.8.625,1.542.185,1.824-.951-1.715-.951-1.715.163,1.785-.115,1.9-.766-1.785-.766-1.785.14,1.23-.161,1.343-.77-1.79-.77-1.79S48.847,147.57,49.41,148.16Z" transform="translate(-0.822 -37.869)" fill="#ecb7b0"/>
      <path id="Path_196" data-name="Path 196" d="M29.169,152.789c.325,0,1.917-.1,1.962.293s-1.641.233-1.621.3a9.471,9.471,0,0,0,1.135.926c.489.366.99.711.833.842s-1.435-.564-1.435-.564,1.6,1.063,1.531,1.206c-.075.158-.857,0-1.783-.51,0,0,1.087.65.949.906s-1.7-.718-1.7-.718,1.032.982.915,1.112c-.154.17-1.128-.486-1.774-1.079a6.444,6.444,0,0,1,.431-1.61C28.986,152.912,29.169,152.789,29.169,152.789Z" transform="translate(-8.234 -35.862)" fill="#ecb7b0"/>
      <path id="Path_197" data-name="Path 197" d="M111.2,179.667c.833.246,3.019.341,3.339,1.2s-3.031,1.146-4.792.9-2.535-.4-2.535-.711a5.162,5.162,0,0,1,.4-1.145l0,0A4.911,4.911,0,0,0,111.2,179.667Z" transform="translate(24.452 -24.741)" fill="#3a28b1"/>
      <path id="Path_198" data-name="Path 198" d="M81.327,180.694c.134.4.564.435,1.457.375,1.329-.093,2.2-.062,2.5-.5a.979.979,0,0,0,.1-.181c1.1.365,2.954,1.146,2.9,1.665-.061.619-2.813.712-4.451.527s-2.658-.462-2.812-.711C80.921,181.707,81.125,181.125,81.327,180.694Z" transform="translate(13.61 -24.442)" fill="#3a28b1"/>
      <path id="Path_199" data-name="Path 199" d="M81.247,195.3c.185-1.207,3-13.941,3.586-17.68s3.367-16.072,4.326-20.059,3.2-14.56,3.2-14.56a.507.507,0,0,0,.044.187c.154.154,3.244,1.206,8.559,1.3A21.01,21.01,0,0,0,109.619,143c.249,1.267,2.289,12.365,2.752,14.806s5.533,21.821,6.026,23.584,3.617,13.227,3.555,13.445a4.911,4.911,0,0,1-3.585.246l0,0c-.051-.085-4-7.54-6.179-13.073-2.2-5.562-4.574-11.5-6.119-15.822s-3.582-10.8-3.957-11.871c-.42-1.2-.867-3.244-1.453-1.667s-6.149,16.692-7.235,19.965-4.355,12.3-5.1,14.867c-.687,2.376-2.512,7.315-3.026,8.38a.978.978,0,0,1-.1.181c-.307.435-1.173.4-2.5.5-.893.061-1.323.025-1.457-.375A1.97,1.97,0,0,1,81.247,195.3Z" transform="translate(13.694 -39.907)" fill="url(#linear-gradient-16)"/>
      <path id="Path_200" data-name="Path 200" d="M94.933,123.832a3.238,3.238,0,0,0,.346.246,2.713,2.713,0,0,0,1.5.319c-.016.649.023,1.624-.059,2.443-.082.837-.293,1.5-.823,1.463-.472-.038-.746-.69-.889-1.535A12.019,12.019,0,0,1,94.933,123.832Z" transform="translate(19.352 -47.833)" fill="#ecb7b0"/>
      <path id="Path_201" data-name="Path 201" d="M92.889,123.557a.9.9,0,0,0,1.293.387,5.714,5.714,0,0,0,1.6,2.41,2.809,2.809,0,0,0,.346.239,2.659,2.659,0,0,0,1.5.319,3.557,3.557,0,0,0,2.725-1.448,2.37,2.37,0,0,0,.257-.488,6.779,6.779,0,0,0,.379-1.768,11.757,11.757,0,0,0-.328-4.109,3.815,3.815,0,0,1-.638-.7c-.81-1.063-1.768-.652-3.1-.431a2.815,2.815,0,0,0-2.528,1.855c-.372,1.079.082,2.58-.5,2.865a.968.968,0,0,1-.869-.124A1.033,1.033,0,0,0,92.889,123.557Z" transform="translate(18.498 -50.37)" fill="#ecb7b0"/>
      <path id="Path_202" data-name="Path 202" d="M93.649,117.958c1.422-.927,6.182-3.493,8.562-1.979,1.36.867.524,2.289-.216,3.216-.533.666-.66,1.111-1.06.828a3.5,3.5,0,0,1-.64-.705c-.81-1.059-1.768-.649-3.1-.433a2.822,2.822,0,0,0-2.527,1.853c-.372,1.083.082,2.584-.5,2.867a.96.96,0,0,1-.872-.122,2.3,2.3,0,0,1-1.07-1.631A3.823,3.823,0,0,1,93.649,117.958Z" transform="translate(18.231 -51.275)" fill="#f44234"/>
      <path id="Path_203" data-name="Path 203" d="M79.245,95.148c.506.051,2.043,2.139,1.856,2.434-.222.342-1.231-.811-1.207-.7s1.828,1.973,1.6,2.226c-.2.225-1.945-1.112-1.945-1.112s1.255,1.309,1.111,1.507c-.17.232-1.638-1.254-1.638-1.254s.758,1.073.612,1.258c-.185.24-1.244-.864-1.569-1.93C78.063,97.582,78.271,95.054,79.245,95.148Z" transform="translate(12.398 -59.698)" fill="#ecb7b0"/>
      <path id="Path_204" data-name="Path 204" d="M75.955,103.485a27.106,27.106,0,0,0,4.31,3.965,8.054,8.054,0,0,1,1.182-2.437s-3.014-3.868-3.363-5.144-.137-2.041.882-3.893,2.875-5.728,3.362-5.5,1.831,4.033,2.04,6.958a12.257,12.257,0,0,1-1.206,5.677,13.006,13.006,0,0,0,7.418,2.6h.1A17.948,17.948,0,0,0,97,104a.446.446,0,0,0-.025-.065c-.961-2.047-1.749-5.513-.874-6.939s1.62-2.135,1.527-3.849-1.527-3.753-1.25-3.94,4.03-.718,6.4-1.411a6.471,6.471,0,0,0,4.774-5.287c.3-2.666-1.734-5.355-4.587-7.765a15.16,15.16,0,0,0-6.169-3.455l.069,3.361a11.544,11.544,0,0,1,3.411,2.44c1.155,1.4,2.872,3.5,2.573,4.7s-.977,1.809-4.963,1.391a47.161,47.161,0,0,0-7.512-.273.141.141,0,0,1,.024.078c0,.3-.267,2.745-.749,2.863h0a.176.176,0,0,1-.1-.011c-.558-.189-1.91-2.489-2-2.772a.24.24,0,0,1,0-.064c-.548.024-1.063.058-1.535.095a9.517,9.517,0,0,0-4.95,1.49,9.8,9.8,0,0,0-1.626,1.491c-1.924,2.157-5.982,8.366-6.583,10.712S74.239,101.4,75.955,103.485Z" transform="translate(10.195 -69.565)" fill="url(#linear-gradient-17)"/>
      <g id="Group_93" data-name="Group 93" transform="translate(85.506 50.819)">
        <path id="Path_205" data-name="Path 205" d="M76.985,108.381c-.305.319-.77-.37-1.258-1.19s-.561-1.219-.161-1.168S77.209,108.149,76.985,108.381Z" transform="translate(-74.248 -106.019)" fill="#ecb7b0"/>
        <path id="Path_206" data-name="Path 206" d="M76.764,109.1c-.192.353-.917-.421-1.333-1.12s-.551-1.316-.237-1.479S77.01,108.643,76.764,109.1Z" transform="translate(-74.367 -105.825)" fill="#ecb7b0"/>
        <path id="Path_207" data-name="Path 207" d="M76.629,109.926c-.311.414-1.21-.848-1.563-1.385s-.485-1.361-.2-1.385S76.991,109.452,76.629,109.926Z" transform="translate(-74.495 -105.549)" fill="#ecb7b0"/>
        <path id="Path_208" data-name="Path 208" d="M76.394,110.6c-.307.351-1.166-.629-1.52-1.272s-.416-1.25-.164-1.346S76.7,110.255,76.394,110.6Z" transform="translate(-74.558 -105.208)" fill="#ecb7b0"/>
      </g>
      <path id="Path_209" data-name="Path 209" d="M15.823,182.07a11.568,11.568,0,0,0,3.185-2.471c1.112-1.081,2.04-.434,2.255,0a35.25,35.25,0,0,0-1.327,3.675c-2.38.714-5.719,1.146-5.845.663S14.339,182.843,15.823,182.07Z" transform="translate(-14.069 -25.014)" fill="#3a28b1"/>
      <path id="Path_210" data-name="Path 210" d="M61.561,181.163a5.206,5.206,0,0,1,3.053,1.012c.246.307-1.206.785-3.585.729a21.566,21.566,0,0,1-3.123-.2,1.829,1.829,0,0,1,.339-1.32h0c.042.095.062.147.062.147A7.04,7.04,0,0,0,61.561,181.163Z" transform="translate(4.056 -24.126)" fill="#3a28b1"/>
      <path id="Path_211" data-name="Path 211" d="M37.524,145.39c.257.8,1.449.708,1.449.708a3.982,3.982,0,0,0,1.842,2.985,2.022,2.022,0,0,0,.965.3h.5c.9-.011,1.866-.2,2.544-2.086.058-.167.117-.349.172-.544a8.331,8.331,0,0,0,.23-1.107,9.581,9.581,0,0,0,.1-1.4,12.263,12.263,0,0,0-.454-3.288,2.517,2.517,0,0,1-1.821-.233c-1.357-.615-3.21.157-3.46,1.483s-.37,2.567-.834,2.445a1.558,1.558,0,0,1-.738-.727A1.323,1.323,0,0,0,37.524,145.39Z" transform="translate(-4.394 -40.937)" fill="#ecb7b0"/>
      <path id="Path_212" data-name="Path 212" d="M40.8,146.868c.165,0,.331,0,.5,0a10.955,10.955,0,0,1,.048,2c-.055.551-.209.982-.548,1.091-.3.1-.517-.452-.671-1.151a19.034,19.034,0,0,1-.294-2.235A2.022,2.022,0,0,0,40.8,146.868Z" transform="translate(-3.413 -38.428)" fill="#ecb7b0"/>
      <path id="Path_213" data-name="Path 213" d="M37.531,142.656c.188-1.853.775-3.212,2.289-3.647s2.255-.308,2.906-.557.8-.647,1.545-.742c1.258-.154,1.969.96,1.682,2.785a1.826,1.826,0,0,1-1.1,1.621,2.514,2.514,0,0,1-1.821-.232c-1.36-.618-3.213.156-3.46,1.483s-.37,2.566-.834,2.443a1.535,1.535,0,0,1-.738-.728A3.986,3.986,0,0,1,37.531,142.656Z" transform="translate(-4.376 -42.099)" fill="url(#linear-gradient-18)"/>
      <path id="Path_214" data-name="Path 214" d="M32.812,170.219c.744.278,2.166.867,2.043,1.175s-1.733-.308-1.7,0,2.257,1.856,1.979,2.351-2.218-1.2-2.218-1.2,2.392,2.228,2.11,2.689c-.257.416-2.662-2.064-2.6-1.972s1.3,2.181,1.128,2.373c-.286.322-2.1-1.815-2.1-1.815s.859,2.048.68,2.122c-.262.11-.885-.775-1.235-1.322a2.554,2.554,0,0,1-.372-1.961A16.132,16.132,0,0,1,32.812,170.219Z" transform="translate(-7.29 -28.648)" fill="#ecb7b0"/>
      <path id="Path_215" data-name="Path 215" d="M19.547,185.738s2.837-.638,6.125-1.251c1.358-.254,2.793-.5,4.142-.7.464-.066.919-.127,1.356-.182,4.758-.587,7.971-.31,8.346-.742s.462-3.68.588-7.973.893-10.7.8-10.725a20.035,20.035,0,0,0,9.243,1.637c5.438-.28,6.18-1.637,6.18-1.637s3.244.03,7.943.274,7.564-.2,9.55.529,1.73,3.09,2.38,6.86,1.886,16.3,1.886,16.3c-.038.023-.078.041-.117.064a7.04,7.04,0,0,1-3.253.363s-.02-.052-.062-.147c-.3-.724-1.672-4.043-3.183-7.892-1.708-4.355-2.41-8.375-3-8.777s-5.469-.557-11.218-.247-7.479.464-8.036,1.021-1.64,6.057-2.626,9.55-1.732,6.21-4.3,7.294-6.737.68-12.578.495-11.47-.095-11.5-.435A35.25,35.25,0,0,1,19.547,185.738Z" transform="translate(-12.353 -31.152)" fill="url(#linear-gradient-19)"/>
      <g id="Group_94" data-name="Group 94" transform="translate(96.375 5.249)">
        <path id="Path_216" data-name="Path 216" d="M86.185,77.341a.546.546,0,0,0,.441-.027,5.832,5.832,0,0,0,.379-1,.566.566,0,0,0-1.069-.155C85.614,76.742,85.672,77.19,86.185,77.341Z" transform="translate(-80.803 -72.934)" fill="#f39e97"/>
        <path id="Path_217" data-name="Path 217" d="M84.1,75.333a.886.886,0,0,1,.41,1.457.836.836,0,0,1-1.346-.263C83.015,76.078,83.355,75.13,84.1,75.333Z" transform="translate(-81.881 -73.152)" fill="#f39e97"/>
        <path id="Path_218" data-name="Path 218" d="M86.865,75.172c.218-.051-.141-.568-.509-.581s-.639.4-.557.476.287-.3.539-.278c0,0-.157.288.018.383s.358-.2.358-.2S86.761,75.193,86.865,75.172Z" transform="translate(-80.783 -73.447)" fill="#361410"/>
        <path id="Path_219" data-name="Path 219" d="M85.085,75.028c.221-.058-.1-.693-.465-.761s-.878.414-.8.53.476-.325.656-.267c0,0-.136.414.107.5s.312-.23.312-.23S84.957,75.06,85.085,75.028Z" transform="translate(-81.599 -73.584)" fill="#361410"/>
        <path id="Path_220" data-name="Path 220" d="M87.917,74.67a.327.327,0,0,0-.085-.081,1.175,1.175,0,0,0-.284-.147,1.437,1.437,0,0,0-.492-.082.75.75,0,0,0-.325.074.456.456,0,0,0-.233.312c-.028.112-.057.221-.088.339-.013.124-.028.253-.044.383-.02.263-.031.536-.034.816a1.845,1.845,0,0,1-.109.8c-.065.1-.178.147-.2.038a1.792,1.792,0,0,1-.117-.406,6.876,6.876,0,0,1-.113-.868c-.016-.148-.016-.281-.034-.438a3.129,3.129,0,0,0-.062-.428,1.874,1.874,0,0,0-.325-.793.951.951,0,0,0-.7-.4l-.1-.007a.526.526,0,0,0-.1.014.8.8,0,0,0-.156.037.981.981,0,0,0-.3.177,1.381,1.381,0,0,0-.3.414,1.924,1.924,0,0,0-.1.3c-.007.076-.01.116-.01.116a.046.046,0,0,0,.041.049.041.041,0,0,0,.047-.028l0-.006s.014-.035.038-.1a1.936,1.936,0,0,1,.143-.246,1.107,1.107,0,0,1,.293-.311.8.8,0,0,1,.2-.112.989.989,0,0,1,.148-.028c.018,0,.074-.01.058,0l.071.01a.688.688,0,0,1,.509.293,1.774,1.774,0,0,1,.3.673,2.368,2.368,0,0,1,.074.407c.024.131.034.287.054.431.04.293.085.591.151.886a2.054,2.054,0,0,0,.147.445.36.36,0,0,0,.1.122c.054.025.021.017.09.025a.282.282,0,0,0,.076-.008.385.385,0,0,0,.218-.172,1.928,1.928,0,0,0,.147-.881c.007-.28.02-.55.045-.8.016-.122.031-.239.047-.353.034-.117.064-.226.095-.335.031-.192.2-.232.363-.239a1.784,1.784,0,0,1,.431.062c.12.03.215.059.277.078a.743.743,0,0,1,.092.038.047.047,0,0,0,.064-.064Z" transform="translate(-81.681 -73.782)" fill="#dc847f"/>
        <path id="Path_221" data-name="Path 221" d="M85.609,77.13l-.13.008a2.007,2.007,0,0,1-.287.011,1.038,1.038,0,0,1-.274-.037.85.85,0,0,0-.113-.044l-.013-.006a.048.048,0,0,0-.059.027.052.052,0,0,0,.018.052l.126.081a1.206,1.206,0,0,0,.311.065,1.494,1.494,0,0,0,.31-.031.678.678,0,0,0,.133-.035.049.049,0,0,0,.028-.062A.053.053,0,0,0,85.609,77.13Z" transform="translate(-81.219 -72.426)" fill="#da4f4f"/>
        <path id="Path_222" data-name="Path 222" d="M82.671,75.443s0-.047,0-.122a1.1,1.1,0,0,0-.071-.278,1.127,1.127,0,0,0-.081-.134.838.838,0,0,0-.092-.1,1.305,1.305,0,0,0-.109-.076.044.044,0,0,0-.062.016.04.04,0,0,0,0,.051l.006.01a.975.975,0,0,0,.076.085c.024.024.041.061.068.095a1.1,1.1,0,0,1,.061.116.955.955,0,0,1,.079.237c.023.075.034.124.034.124a.048.048,0,0,0,.057.033.054.054,0,0,0,.034-.042Z" transform="translate(-82.247 -73.392)" fill="#dc847f"/>
      </g>
      <g id="Group_97" data-name="Group 97" transform="translate(94.054 16.271)">
        <g id="Group_95" data-name="Group 95" transform="translate(5.681)">
          <path id="Path_223" data-name="Path 223" d="M86.453,91.58a55.209,55.209,0,0,1-.782,9.874h.095a55.379,55.379,0,0,0,.78-9.877,58.255,58.255,0,0,0-1.636-9.205c-.075-.294-.136-.554-.185-.78a.176.176,0,0,1-.1-.011c.054.235.123.507.2.817A58.093,58.093,0,0,1,86.453,91.58Z" transform="translate(-84.624 -81.579)" fill="#3a28b1"/>
        </g>
        <g id="Group_96" data-name="Group 96" transform="translate(0 5.41)">
          <path id="Path_224" data-name="Path 224" d="M84.631,89.419h.126a.049.049,0,0,0,.044-.051.048.048,0,0,0-.049-.041,3.948,3.948,0,0,1-3-1.166A5.152,5.152,0,0,1,80.7,85.453a.045.045,0,0,0-.047-.047.048.048,0,0,0-.045.048,5.232,5.232,0,0,0,1.076,2.764,3.3,3.3,0,0,0,1.927,1.094A5.129,5.129,0,0,0,84.631,89.419Z" transform="translate(-80.605 -85.406)" fill="#3a28b1"/>
        </g>
      </g>
      <g id="Group_98" data-name="Group 98" transform="translate(18.274 95.505)">
        <path id="Path_225" data-name="Path 225" d="M30.9,142.16a.1.1,0,0,0,.082-.052.094.094,0,0,0-.048-.124.286.286,0,0,0-.085-.025,4.653,4.653,0,0,1-3.67-4.242.085.085,0,0,0-.1-.083.093.093,0,0,0-.085.1,4.832,4.832,0,0,0,3.8,4.406.175.175,0,0,1,.058.014A.1.1,0,0,0,30.9,142.16Z" transform="translate(-26.997 -137.631)" fill="#3a28b1"/>
      </g>
      <path id="Path_226" data-name="Path 226" d="M99.972,119.906a.461.461,0,0,0-.1-.092,1.158,1.158,0,0,0-.353-.17,1.584,1.584,0,0,0-.6-.072,1.048,1.048,0,0,0-.738.338,1.384,1.384,0,0,0-.264.9c-.013.315,0,.643.023.984s.049.687.055,1.039a2.712,2.712,0,0,1-.027.517c-.013.078-.051.171-.074.168h-.051c-.021,0-.021-.011-.034-.011a.309.309,0,0,1-.079-.065,2.923,2.923,0,0,1-.369-.963c-.089-.346-.157-.677-.256-1.022a1.631,1.631,0,0,0-.239-.475,1.343,1.343,0,0,0-.161-.2,1.077,1.077,0,0,0-.185-.174,1.987,1.987,0,0,0-.833-.427,1.123,1.123,0,0,0-.816.095,1,1,0,0,0-.427.466,1.259,1.259,0,0,0-.109.376c-.008.085-.017.131-.017.131a.048.048,0,0,0,.041.054.054.054,0,0,0,.048-.025l0-.007s.018-.041.055-.116c.014-.038.035-.083.058-.139s.069-.1.107-.167A.893.893,0,0,1,95,120.53a.936.936,0,0,1,.623-.049,1.727,1.727,0,0,1,.71.353,1.8,1.8,0,0,1,.312.31,1.344,1.344,0,0,1,.226.4c.1.3.2.649.307.985a3.134,3.134,0,0,0,.438,1.015.389.389,0,0,0,.136.1.817.817,0,0,0,.095.02.486.486,0,0,0,.085-.008.232.232,0,0,0,.139-.131.727.727,0,0,0,.044-.148,2.913,2.913,0,0,0,.035-.548c-.01-.355-.016-.705-.025-1.045s-.007-.663.016-.963a1.3,1.3,0,0,1,.226-.751.818.818,0,0,1,.574-.247,2.3,2.3,0,0,1,.53.027,1.993,1.993,0,0,1,.331.078,1.015,1.015,0,0,1,.115.051.046.046,0,0,0,.066-.011A.044.044,0,0,0,99.972,119.906Z" transform="translate(19.121 -49.597)" fill="#dc847f"/>
      <path id="Path_227" data-name="Path 227" d="M97.4,123.1a1.263,1.263,0,0,1-.127.049c-.034.017-.079.027-.123.048s-.095.024-.141.048a.754.754,0,0,1-.144.025.98.98,0,0,1-.123.01c-.073-.01-.127-.011-.127-.011l-.013,0a.047.047,0,0,0-.049.045.045.045,0,0,0,.021.041s.054.03.141.069a.688.688,0,0,0,.158.025,1.663,1.663,0,0,0,.182-.018.892.892,0,0,0,.294-.147.6.6,0,0,0,.109-.1.05.05,0,0,0-.011-.066A.051.051,0,0,0,97.4,123.1Z" transform="translate(20.044 -48.138)" fill="#da4f4f"/>
      <path id="Path_228" data-name="Path 228" d="M93.815,121.986a.414.414,0,0,0-.059-.117.924.924,0,0,0-.189-.2.7.7,0,0,0-.252-.139.3.3,0,0,0-.1-.01h-.04a.046.046,0,0,0-.045.045.054.054,0,0,0,.031.044l.014,0a.464.464,0,0,1,.09.048,1.151,1.151,0,0,1,.2.144c.069.054.136.117.189.161s.089.076.089.076a.051.051,0,0,0,.068-.006.043.043,0,0,0,.01-.044Z" transform="translate(18.628 -48.791)" fill="#dc847f"/>
      <path id="Path_229" data-name="Path 229" d="M69.493,118.686a1.191,1.191,0,0,0-.045-.117.9.9,0,0,0-.226-.318,1.22,1.22,0,0,0-.539-.312,1.48,1.48,0,0,0-.4-.04,1.321,1.321,0,0,0-.43.124l-.107.052-.025.011-.014.007h0c.02-.014-.031.021-.025.02l-.006,0-.038.034c-.051.042-.1.089-.157.134-.057.071-.112.151-.167.232a1.432,1.432,0,0,0-.092.249,3.055,3.055,0,0,0-.025.994,9.044,9.044,0,0,1,.057.987,1.9,1.9,0,0,1-.062.491.383.383,0,0,1-.095.184c-.035.037-.086.021-.148-.017a1.672,1.672,0,0,1-.437-.855c-.092-.325-.168-.652-.245-.964a2.691,2.691,0,0,0-.355-.927,1.709,1.709,0,0,0-.7-.612.953.953,0,0,0-.858.013,1.053,1.053,0,0,0-.273.253,1.31,1.31,0,0,0-.122.259,1.11,1.11,0,0,0-.059.377c0,.085,0,.131,0,.131a.044.044,0,0,0,.048.044.04.04,0,0,0,.038-.02l0-.007s.021-.038.062-.109q.03-.057.064-.131c.031-.044.065-.1.1-.157s.09-.106.137-.168a.611.611,0,0,1,.69-.1,1.474,1.474,0,0,1,.56.454,2.323,2.323,0,0,1,.38.787c.109.305.213.625.338.946a4.682,4.682,0,0,0,.2.483,1.5,1.5,0,0,0,.143.242.439.439,0,0,0,.088.106l.047.042a.1.1,0,0,0,.034.033l.03.02a.286.286,0,0,0,.329,0,.552.552,0,0,0,.158-.26,3.149,3.149,0,0,0,.092-.523c.027-.349.038-.688.044-1.014a2.763,2.763,0,0,1,.109-.865,1.042,1.042,0,0,1,.075-.154.8.8,0,0,0,.081-.115c.057-.044.112-.083.164-.126l.041-.03,0,0c.006,0-.044.031-.02.017h0l.008,0,.017-.008.072-.032a.852.852,0,0,1,.55-.061c.044,0,.085.011.126.017a1.052,1.052,0,0,0,.116.042,1.551,1.551,0,0,1,.2.079,1.619,1.619,0,0,1,.28.167,1.2,1.2,0,0,0,.1.074.046.046,0,0,0,.069-.014A.045.045,0,0,0,69.493,118.686Z" transform="translate(6.538 -50.287)" fill="#dc847f"/>
      <path id="Path_230" data-name="Path 230" d="M63.717,119.742a.877.877,0,0,0-.018-.123,1.425,1.425,0,0,0-.09-.253.7.7,0,0,0-.187-.216.264.264,0,0,0-.092-.034.216.216,0,0,0-.035-.013.041.041,0,0,0-.054.028.043.043,0,0,0,.013.045l.016.014s.033.028.076.061c.02.025.044.049.066.079s.041.069.065.106a2,2,0,0,1,.1.219c.027.062.042.106.042.106a.051.051,0,0,0,.065.021A.045.045,0,0,0,63.717,119.742Z" transform="translate(6.267 -49.79)" fill="#dc847f"/>
      <path id="Path_231" data-name="Path 231" d="M68.834,118.981a1.1,1.1,0,0,0-.107.1,2.115,2.115,0,0,0-.191.26,1.564,1.564,0,0,0-.122.3c-.013.089-.016.148-.016.148a.045.045,0,0,0,.044.048.048.048,0,0,0,.044-.025l0-.01s.023-.051.047-.126a1.708,1.708,0,0,1,.133-.264,2.8,2.8,0,0,1,.16-.254c.042-.071.074-.119.074-.119a.048.048,0,0,0-.016-.065A.052.052,0,0,0,68.834,118.981Z" transform="translate(8.401 -49.843)" fill="#dc847f"/>
      <path id="Path_232" data-name="Path 232" d="M66.516,121.437a.685.685,0,0,1-.11.04.734.734,0,0,1-.237.025.324.324,0,0,1-.127-.013.359.359,0,0,1-.115-.027c-.069-.018-.12-.028-.12-.028h-.011a.046.046,0,0,0-.054.038.049.049,0,0,0,.014.041,1.055,1.055,0,0,0,.109.088.448.448,0,0,0,.13.066.538.538,0,0,0,.168.031.544.544,0,0,0,.174-.024.4.4,0,0,0,.136-.065.436.436,0,0,0,.1-.1.054.054,0,0,0,.006-.069A.051.051,0,0,0,66.516,121.437Z" transform="translate(7.301 -48.828)" fill="#da4f4f"/>
      <path id="Path_233" data-name="Path 233" d="M35.114,125.962s-.021-.044-.059-.126a1.265,1.265,0,0,0-.223-.336.962.962,0,0,0-.565-.288,1.047,1.047,0,0,0-.813.127,1.335,1.335,0,0,0-.4.876c-.047.331-.047.684-.062,1.042a10.542,10.542,0,0,1-.1,1.1,1.484,1.484,0,0,1-.167.517.276.276,0,0,1-.194.137c0,.013-.1,0-.1-.024-.023-.008-.047-.049-.072-.079a2.968,2.968,0,0,1-.141-1.1c0-.376.021-.748.034-1.11A2.311,2.311,0,0,0,32,125.634a1.441,1.441,0,0,0-.751-.669,1.231,1.231,0,0,0-.474-.086.714.714,0,0,0-.215.045.8.8,0,0,0-.2.107A1.089,1.089,0,0,0,30,125.6a1.515,1.515,0,0,0-.066.406.617.617,0,0,0,0,.143.045.045,0,0,0,.048.042.049.049,0,0,0,.044-.034s.013-.045.041-.129a2.424,2.424,0,0,1,.141-.349,1.037,1.037,0,0,1,.325-.413.475.475,0,0,1,.117-.062.631.631,0,0,1,.161-.03,1.086,1.086,0,0,1,.339.059,1.175,1.175,0,0,1,.612.539,1.97,1.97,0,0,1,.269.926c.008.359.013.734.028,1.115a3.055,3.055,0,0,0,.2,1.155.386.386,0,0,0,.127.126.138.138,0,0,0,.079.027l.034.007a.171.171,0,0,0,.054-.007.382.382,0,0,0,.267-.182,1.582,1.582,0,0,0,.187-.563,9.939,9.939,0,0,0,.1-1.112c.018-.362.028-.71.075-1.032a1.173,1.173,0,0,1,.359-.782.673.673,0,0,1,.351-.12,2.073,2.073,0,0,1,.352.014.845.845,0,0,1,.5.24,1.538,1.538,0,0,1,.221.3c.044.079.069.122.069.122a.046.046,0,0,0,.079-.045Z" transform="translate(-7.511 -47.4)" fill="#dc847f"/>
      <g id="Group_99" data-name="Group 99" transform="translate(24.427 82.895)">
        <path id="Path_234" data-name="Path 234" d="M31.861,128.9a.985.985,0,0,0,.466-.1.045.045,0,0,0,.02-.062.045.045,0,0,0-.062-.017,1.089,1.089,0,0,1-.874,0,.043.043,0,0,0-.058.021.045.045,0,0,0,.023.061A1.209,1.209,0,0,0,31.861,128.9Z" transform="translate(-31.349 -128.711)" fill="#da4f4f"/>
      </g>
      <path id="Path_235" data-name="Path 235" d="M44.2,142.695a.8.8,0,0,0-.051-.12,1.161,1.161,0,0,0-.243-.3.887.887,0,0,0-.592-.233,1.126,1.126,0,0,0-.728.356,1.341,1.341,0,0,0-.384.848,8.742,8.742,0,0,0-.035.968,8.1,8.1,0,0,1-.048,1.009,1.35,1.35,0,0,1-.126.472.158.158,0,0,1-.062.066c-.007,0-.025.013-.025.007-.016-.006-.051-.006-.054-.014a.452.452,0,0,1-.12-.165,3.411,3.411,0,0,1-.208-1c-.035-.345-.028-.673-.051-1.018a2.313,2.313,0,0,0-.249-.968,1.086,1.086,0,0,0-.728-.611,1.373,1.373,0,0,0-.23-.018h-.075l-.014.006h-.006l-.024,0-.092.021a.844.844,0,0,0-.351.228,1.487,1.487,0,0,0-.315.509,1.767,1.767,0,0,0-.12.489.045.045,0,0,0,.044.049.048.048,0,0,0,.045-.027l.054-.112a3.205,3.205,0,0,1,.17-.3,1.948,1.948,0,0,1,.319-.4.812.812,0,0,1,.226-.133l.088-.023.023,0h.041a.737.737,0,0,1,.157.008.8.8,0,0,1,.532.45,2.15,2.15,0,0,1,.264.854c.041.317.059.67.116,1.014a3.86,3.86,0,0,0,.256,1.042.444.444,0,0,0,.211.235c.035.018.048.01.072.018a.247.247,0,0,0,.1-.018.273.273,0,0,0,.123-.116,1.483,1.483,0,0,0,.161-.526c.051-.351.072-.694.1-1.025s.041-.65.092-.932a1.256,1.256,0,0,1,.324-.67.734.734,0,0,1,.14-.112l.075-.055.021-.016c-.016.013.006,0,.006,0l.035-.014c.044-.021.088-.042.13-.058a.894.894,0,0,0,.129-.014.78.78,0,0,1,.435.13,2.087,2.087,0,0,1,.274.185c.062.055.1.082.1.082a.049.049,0,0,0,.069-.008.04.04,0,0,0,.007-.041Z" transform="translate(-3.649 -40.331)" fill="#dc847f"/>
      <path id="Path_236" data-name="Path 236" d="M41.594,145.814s-.064.016-.164.037a2.1,2.1,0,0,1-.356.038.786.786,0,0,1-.192-.013.868.868,0,0,1-.164-.025l-.167-.038h-.007a.053.053,0,0,0-.058.037.05.05,0,0,0,.024.049s.061.037.161.09a.614.614,0,0,0,.182.062.857.857,0,0,0,.221.025.9.9,0,0,0,.223-.018,1.181,1.181,0,0,0,.181-.059.885.885,0,0,0,.161-.1.047.047,0,1,0-.045-.082Z" transform="translate(-3.144 -38.744)" fill="#da4f4f"/>
      <path id="Path_237" data-name="Path 237" d="M38.511,144.214a.462.462,0,0,0-.037-.123,1.131,1.131,0,0,0-.139-.245.87.87,0,0,0-.222-.187c-.072-.031-.123-.047-.123-.047a.049.049,0,0,0-.057.033.045.045,0,0,0,.016.048l.007.007a.518.518,0,0,0,.093.062c.028.018.054.048.086.074s.055.071.088.1a1.118,1.118,0,0,1,.143.208c.037.061.057.1.057.1a.052.052,0,0,0,.065.021.05.05,0,0,0,.025-.048Z" transform="translate(-4.199 -39.653)" fill="#dc847f"/>
      <path id="Path_238" data-name="Path 238" d="M98.78,120.585c.126-.154-.479-.666-1.035-.465a.984.984,0,0,0-.557,1.178c.154.184.124-.45.264-.614,0,0,.028.486.416.411s.1-.727.1-.727a.563.563,0,0,1,.475.123C98.642,120.675,98.78,120.585,98.78,120.585Z" transform="translate(20.284 -49.388)" fill="#361410"/>
      <path id="Path_239" data-name="Path 239" d="M96.41,121.2c.115-.058-.221-.775-.881-.786s-1,.666-.834.766.254-.283.451-.373c0,0-.184.438.245.478s.341-.434.341-.434a.335.335,0,0,1,.307.106C96.2,121.114,96.271,121.272,96.41,121.2Z" transform="translate(19.259 -49.245)" fill="#361410"/>
      <path id="Path_240" data-name="Path 240" d="M68.144,118.965c.158-.137-.433-.694-1-.565a.642.642,0,0,0-.472.859c.1.09.129-.318.277-.384,0,0-.023.53.327.519s.115-.694.115-.694a.933.933,0,0,1,.406.093C67.948,118.884,68.053,119.047,68.144,118.965Z" transform="translate(7.666 -50.088)" fill="#361410"/>
      <path id="Path_241" data-name="Path 241" d="M65.545,119.095c.154-.074-.208-.722-.765-.677s-.765.544-.638.677.2-.3.325-.341c0,0-.175.5.174.558s.311-.523.311-.523a.269.269,0,0,1,.278.083C65.382,119.01,65.418,119.157,65.545,119.095Z" transform="translate(6.626 -50.073)" fill="#361410"/>
      <path id="Path_242" data-name="Path 242" d="M43.181,143.336c.2-.01-.182-.8-.738-.789s-.939.789-.763.895.208-.637.7-.616c0,0-.277.509.106.625s.37-.509.37-.509S42.981,143.347,43.181,143.336Z" transform="translate(-2.668 -40.093)" fill="#361410"/>
      <path id="Path_243" data-name="Path 243" d="M40.869,143.359c.161-.041-.1-.775-.58-.811s-.963.592-.823.732.3-.475.712-.43c0,0-.225.526.065.616s.332-.418.332-.418S40.7,143.405,40.869,143.359Z" transform="translate(-3.575 -40.093)" fill="#361410"/>
      <path id="Path_244" data-name="Path 244" d="M33.7,126.118c.134-.075-.177-.707-.589-.674s-.871.6-.687.768.254-.452.56-.462c0,0-.119.472.127.543s.356-.425.356-.425S33.49,126.234,33.7,126.118Z" transform="translate(-6.497 -47.167)" fill="#361410"/>
      <path id="Path_245" data-name="Path 245" d="M31.553,126.142c.163-.047-.033-.671-.575-.777s-.85.57-.744.663.294-.5.676-.42c0,0-.189.466.134.594s.2-.423.2-.423S31.439,126.177,31.553,126.142Z" transform="translate(-7.392 -47.204)" fill="#361410"/>
      <path id="Path_246" data-name="Path 246" d="M98.349,123.887a2.37,2.37,0,0,0,.257-.488,6.779,6.779,0,0,0,.379-1.768.771.771,0,0,0-1.1.362A1.311,1.311,0,0,0,98.349,123.887Z" transform="translate(20.505 -48.791)" fill="#f39e97"/>
      <path id="Path_247" data-name="Path 247" d="M95.2,121.975a1.107,1.107,0,0,1,1.105,1.375,1.036,1.036,0,0,1-1.8.359C94.194,123.276,94.209,122.022,95.2,121.975Z" transform="translate(19.123 -48.601)" fill="#f39e97"/>
      <path id="Path_248" data-name="Path 248" d="M67.809,121.528c-.548.2-1.091-.4-.949-.99a.765.765,0,0,1,1.22-.465A.831.831,0,0,1,67.809,121.528Z" transform="translate(7.755 -49.451)" fill="#f39e97"/>
      <path id="Path_249" data-name="Path 249" d="M63.8,120.294a5.048,5.048,0,0,0,.623,1.33.679.679,0,0,0,.349-.007.98.98,0,0,0,.2-1.645A.742.742,0,0,0,63.8,120.294Z" transform="translate(6.498 -49.502)" fill="#f39e97"/>
      <path id="Path_250" data-name="Path 250" d="M33.492,128.866a7.21,7.21,0,0,0,.553-1.4c-.366-.6-1.252-.278-1.371.431C32.553,128.66,33.168,128.975,33.492,128.866Z" transform="translate(-6.381 -46.46)" fill="#f39e97"/>
      <path id="Path_251" data-name="Path 251" d="M30.262,128.841c.475.137,1.245-.372.915-1.343a.82.82,0,0,0-1.609.2C29.581,128.547,29.937,128.748,30.262,128.841Z" transform="translate(-7.659 -46.564)" fill="#f39e97"/>
      <path id="Path_252" data-name="Path 252" d="M42,145.465a.778.778,0,0,0,.968.4c.058-.167.117-.349.172-.544a8.331,8.331,0,0,0,.23-1.107.867.867,0,0,0-.526-.252C42.149,143.9,41.8,144.862,42,145.465Z" transform="translate(-2.54 -39.509)" fill="#f39e97"/>
      <path id="Path_253" data-name="Path 253" d="M39.86,145.829c-.643.086-1.081-.712-.787-1.405a.9.9,0,0,1,1.514-.216A1.051,1.051,0,0,1,39.86,145.829Z" transform="translate(-3.767 -39.538)" fill="#f39e97"/>
    </g>
  </g>
</svg>
