<svg xmlns="http://www.w3.org/2000/svg" width="152.413" height="130.006" viewBox="0 0 152.413 130.006">
  <g id="Group_73" data-name="Group 73" transform="translate(-300.09 -315.418)">
    <path id="Path_144" data-name="Path 144" d="M374.19,332.467a57.943,57.943,0,0,1,49.233,25.914l2.9-1.746a61.215,61.215,0,1,0,2.964,4.966l-2.9,1.751a57.983,57.983,0,1,1-52.19-30.885Z" transform="translate(-10.027 -10.027)" fill="none"/>
    <path id="Path_145" data-name="Path 145" d="M364.108,319.036a61.378,61.378,0,0,1,52.186,27.572l3.09-1.869a64.743,64.743,0,1,0,2.968,4.966l-3.095,1.87a61.375,61.375,0,1,1-55.149-32.538Z" fill="#616e7d"/>
    <path id="Path_146" data-name="Path 146" d="M383.881,356.421a43.432,43.432,0,0,1,36.575,18.925l12.429-7.507a57.9,57.9,0,1,0,2.957,4.971l-12.469,7.531a43.463,43.463,0,1,1-39.492-23.92Z" transform="translate(-19.488 -19.485)" fill="#616e7d"/>
    <path id="Path_147" data-name="Path 147" d="M424.376,411.189a28.945,28.945,0,0,1,23.9,11.947l12.445-7.516a44.546,44.546,0,1,0,2.917,4.995L451.2,428.126a28.988,28.988,0,1,1-26.826-16.937Z" transform="translate(-59.751 -59.76)" fill="#fff"/>
    <path id="Path_148" data-name="Path 148" d="M464.888,465.955a14.448,14.448,0,0,1,11.173,4.993l12.49-7.542a28.9,28.9,0,1,0,2.928,4.99l-12.566,7.59a14.5,14.5,0,1,1-14.026-10.031Z" transform="translate(-100.029 -100.03)" fill="#616e7d"/>
    <path id="Path_149" data-name="Path 149" d="M507.311,516.671l9.021-5.448a14.41,14.41,0,1,0,2.853,5.038l-9.24,5.579a2.553,2.553,0,0,1-3.449-.788l-.138-.211A2.979,2.979,0,0,1,507.311,516.671Z" transform="translate(-140.299 -140.304)" fill="#fff"/>
    <path id="Path_150" data-name="Path 150" d="M630.24,361.978a1.86,1.86,0,0,0,1.829-.053l1.909-1.152a.938.938,0,0,0-.048-1.629l-8.835-4.657.993-.6a.936.936,0,0,0,.306-1.294l-1.243-2a.941.941,0,0,0-1.281-.306l-1.024.618-.215-9.885a.934.934,0,0,0-1.416-.778l-1.9,1.147a1.856,1.856,0,0,0-.9,1.629l.229,10.425-.5.309-.221-9.886a.937.937,0,0,0-.484-.8.95.95,0,0,0-.937.021l-1.9,1.145a1.863,1.863,0,0,0-.9,1.631l.232,10.427-.509.308-.221-9.885a.934.934,0,0,0-1.418-.78l-1.895,1.145a1.857,1.857,0,0,0-.9,1.629l.2,8.88a.938.938,0,0,1-.445.81l-7.444,4.5-3.09,1.869-2.9,1.746-12.429,7.507-12.445,7.516-12.49,7.542-9.021,5.448a2.979,2.979,0,0,0-.953,4.17l.138.212a2.553,2.553,0,0,0,3.449.788l9.24-5.579,12.565-7.59,12.434-7.511,12.469-7.531,2.9-1.751,3.095-1.87,7.438-4.492a.912.912,0,0,1,.9-.027l8.2,4.324a1.851,1.851,0,0,0,1.828-.055l1.91-1.152a.934.934,0,0,0-.046-1.626l-8.838-4.655.487-.293,9.371,4.935a1.851,1.851,0,0,0,1.828-.053l1.908-1.152a.953.953,0,0,0,.455-.831.935.935,0,0,0-.5-.8l-8.836-4.654.482-.295Z" transform="translate(-181.925 -18.16)" fill="#aad4c8"/>
  </g>
</svg>
