<svg xmlns="http://www.w3.org/2000/svg" width="261.65" height="273.147" viewBox="0 0 261.65 273.147">
  <path id="Path_276" data-name="Path 276" d="M52.036,273.147a10.992,10.992,0,0,1-10.949-10.03L22.911,56.57H0V34.583H76.589V18.322A18.344,18.344,0,0,1,94.912,0h71.825a18.344,18.344,0,0,1,18.323,18.322V34.583H261.65V56.57H238.369L220.192,263.113a10.99,10.99,0,0,1-10.949,10.034ZM62.1,251.159H199.173L216.3,56.57H44.983ZM98.577,34.583h64.5v-12.6h-64.5Zm59.007,183.925,4.764-130.092,21.973.806L179.556,219.31ZM77.325,89.219,99.3,88.412,104.063,218.5l-21.973.806Zm42.506,129.693V88.819h21.987V218.911Z"/>
</svg>
