<svg xmlns="http://www.w3.org/2000/svg" width="155.365" height="158.981" viewBox="0 0 155.365 158.981">
  <path id="Path_273" data-name="Path 273" d="M111.166,157.977,77.683,138.958,44.2,157.977a8.539,8.539,0,0,1-8.036,0L4.019,139.495A7.892,7.892,0,0,1,0,132.8V93.42a7.994,7.994,0,0,1,4.019-6.965L37.5,67.436V26.452a7.993,7.993,0,0,1,4.018-6.964L73.664,1A8.541,8.541,0,0,1,81.7,1l32.144,18.483a7.99,7.99,0,0,1,4.018,6.964V67.169l33.485,19.286a7.993,7.993,0,0,1,4.018,6.965v39.11a7.993,7.993,0,0,1-4.018,6.965L119.2,157.977a8.539,8.539,0,0,1-8.036,0ZM95.63,126.635a2.575,2.575,0,0,0-1.876,2.411V141.9l20.091,11.518a2.43,2.43,0,0,0,2.678,0L136.615,141.9V129.047a2.574,2.574,0,0,0-1.875-2.411l-10.714-3.481a12.614,12.614,0,0,1-17.681,0ZM34.823,139.495v11.517l4.019,2.411a2.43,2.43,0,0,0,2.678,0L61.61,141.9V132.8a2.659,2.659,0,0,0-1.875-2.678L48.753,126.9a1.608,1.608,0,0,1-1.071-.268ZM31.61,126.9l-10.984,3.216a3.223,3.223,0,0,0-1.876,2.678V141.9l10.715,6.161V137.351l6.965-6.965-3.75-3.75C32.413,126.635,31.878,126.9,31.61,126.9Zm99.38-42.056v25.181a9.028,9.028,0,0,1-1.339,4.553l-2.412,3.749,9.109,2.948a7.714,7.714,0,0,1,5.624,7.5v9.911l6.7-3.482a2.811,2.811,0,0,0,1.339-2.41V93.42a2.809,2.809,0,0,0-1.339-2.41L115.185,71.99,81.7,91.01c-.535.268-.8.268-1.34.535v42.592L88.4,138.69v-9.911a7.928,7.928,0,0,1,5.091-7.5l9.107-2.948-2.411-3.749a9.028,9.028,0,0,1-1.339-4.553V92.884a7.893,7.893,0,0,1,8.036-8.036ZM62.415,103.063l1.874,23.84a7.677,7.677,0,0,1,2.679,5.894v5.892L75,134.137V91.544c-.535-.266-.8-.266-1.34-.535L40.181,71.99,6.7,91.01a2.813,2.813,0,0,0-1.339,2.41v39.11A2.814,2.814,0,0,0,6.7,134.94l6.7,3.75V132.8a8.607,8.607,0,0,1,2.678-5.894l1.876-23.84A22.629,22.629,0,0,1,38.575,82.437q.744-.05,1.479-.049A22.589,22.589,0,0,1,62.415,103.063Zm-27.592.535v5.09a2.415,2.415,0,0,0,.268,1.339L37.5,114.85V119.4a8.558,8.558,0,0,1-.8,3.75l3.481,3.481,3.483-3.481a9.443,9.443,0,0,1-.8-3.75V114.85l2.411-5.089c.267-.268.267-.536.267-1.071V103.6a5.358,5.358,0,0,0-10.715,0Zm16.073,0v5.09a8.234,8.234,0,0,1-.8,3.481l-1.876,3.75V119.4a3.229,3.229,0,0,0,1.876,2.679l8.572,2.41L57.057,103.6a16.929,16.929,0,0,0-33.752,0L21.7,124.493l8.573-2.41a3.227,3.227,0,0,0,1.874-2.679v-3.483l-1.874-3.75a7.4,7.4,0,0,1-.8-3.481V103.6a10.715,10.715,0,1,1,21.43,0Zm53.573-.535v.535h.268v6.43a3.805,3.805,0,0,0,.536,1.606l4.287,6.7c.266.536.8.8,1.339,1.34a7.021,7.021,0,0,0,10.178-1.34l4.287-6.7a3.8,3.8,0,0,0,.535-1.606v-6.965l-10.715-2.144Zm21.43-5.358v-7.5H107.149a2.532,2.532,0,0,0-2.679,2.678v4.822l10.715-2.143ZM81.434,60.739l3.75,3.751a8.492,8.492,0,0,1,1.874,8.572L82.773,84.313l16.34-9.375V61.544a2.573,2.573,0,0,0-1.875-2.411L86.523,55.65ZM58.128,59.668a2.574,2.574,0,0,0-1.876,2.41V74.938l16.34,9.375L68.307,73.062a8.37,8.37,0,0,1,1.876-8.572l3.749-3.751-5.089-5.09Zm15.8,8.572a3.721,3.721,0,0,0-.535,2.947l4.285,11.518,4.286-11.518a2.445,2.445,0,0,0-.535-2.947l-3.751-3.75ZM85.719,17.88a7.893,7.893,0,0,1,8.036,8.036V45.472a7.71,7.71,0,0,1-2.41,5.625l-.8.8,8.3,2.678a7.714,7.714,0,0,1,5.624,7.5V71.99l8.037-4.554V26.452a2.81,2.81,0,0,0-1.34-2.41L79.022,5.558a2.434,2.434,0,0,0-2.678,0L44.2,24.042a2.811,2.811,0,0,0-1.339,2.41V67.169L50.9,71.722v-9.91a7.717,7.717,0,0,1,5.625-7.5l8.3-2.678-.8-.8A7.3,7.3,0,0,1,61.61,45.2V25.916a7.893,7.893,0,0,1,8.036-8.036ZM66.968,39.309h.268v6.162a2.426,2.426,0,0,0,.8,1.874L71.79,51.1l2.947,2.946,2.946,2.947,3.483-3.213,6.7-6.7a2.438,2.438,0,0,0,.8-1.876V39.309a3.881,3.881,0,0,0-.535-1.874,3.135,3.135,0,0,0-4.554-1.072l-5.626,3.482-5.626-3.482a4.97,4.97,0,0,0-1.874-.535A3.546,3.546,0,0,0,66.968,39.309Zm7.769-7.5,2.946,1.607,2.947-1.607c2.144-1.607,5.09-1.607,7.768-.536V25.916a2.531,2.531,0,0,0-2.678-2.679H69.646a2.532,2.532,0,0,0-2.678,2.679v5.357a7.924,7.924,0,0,1,3.221-.661A9.447,9.447,0,0,1,74.737,31.81Zm37.769,114.648V141.1h5.357v5.358Zm-64.29-8.036v-5.358h8.036v5.358Zm75-2.678v-5.358h8.036v5.358Zm-10.715,0v-5.358h5.357v5.358ZM91.076,68.775V63.418h5.357v5.358Z"/>
</svg>
