<svg xmlns="http://www.w3.org/2000/svg" width="70" height="57.104" viewBox="0 0 70 57.104">
  <path id="Path_275" data-name="Path 275" d="M5.455,57.1A5.461,5.461,0,0,1,0,51.652V12.575A5.467,5.467,0,0,1,5.454,7.109H25.036V2.375A2.378,2.378,0,0,1,27.411,0H42.589a2.378,2.378,0,0,1,2.375,2.375V7.109H64.545A5.467,5.467,0,0,1,70,12.575V51.652A5.462,5.462,0,0,1,64.545,57.1ZM2,12.575V51.652a3.459,3.459,0,0,0,3.455,3.455h59.09A3.459,3.459,0,0,0,68,51.652V12.575a3.466,3.466,0,0,0-3.455-3.466H44.964v1.477a2.378,2.378,0,0,1-2.375,2.375H27.411a2.378,2.378,0,0,1-2.375-2.375V9.109H5.455A3.466,3.466,0,0,0,2,12.575Zm25.036-10.2v8.211a.377.377,0,0,0,.375.375H42.589a.377.377,0,0,0,.375-.375V2.375A.377.377,0,0,0,42.589,2H27.411A.377.377,0,0,0,27.036,2.375ZM8.271,47.652a1,1,0,0,1,0-2H61.729a1,1,0,0,1,0,2Zm21.575-8.333h0Zm-21.575,0a1,1,0,0,1-1-1.028A11.8,11.8,0,0,1,15.22,27.464a6.127,6.127,0,1,1,7.675,0,11.8,11.8,0,0,1,7.951,10.829,1,1,0,0,1-1,1.028Zm20.5-2a9.792,9.792,0,0,0-9.57-8.5l-.137,0-.142,0a9.792,9.792,0,0,0-9.566,8.5Zm-19.416,0h0Zm5.583-14.629a4.125,4.125,0,1,0,4.126-4.125A4.125,4.125,0,0,0,14.934,22.691ZM39.661,38.408a1,1,0,0,1,0-2H61.729a1,1,0,0,1,0,2Zm0-9.241a1,1,0,1,1,0-2H61.729a1,1,0,1,1,0,2Zm0-9.241a1,1,0,1,1,0-2H61.729a1,1,0,1,1,0,2Z"/>
</svg>
