<svg xmlns="http://www.w3.org/2000/svg" width="117.083" height="117.081" viewBox="0 0 117.083 117.081">
  <g id="discover" transform="translate(0 -0.294)">
    <path id="Path_401" data-name="Path 401" d="M336.3,336.594a7.884,7.884,0,0,1-11.149,0l-26.236-26.236a2.522,2.522,0,0,1,0-3.568l7.581-7.581a2.523,2.523,0,0,1,3.567,0L336.3,325.446A7.883,7.883,0,0,1,336.3,336.594Zm0,0" transform="translate(-222.545 -222.544)" fill="#a4c9ff"/>
    <path id="Path_402" data-name="Path 402" d="M284.043,276.92l-8.427-8.428A40.1,40.1,0,0,1,268.2,275.9l8.428,8.427Zm0,0" transform="translate(-200.173 -200.169)" fill="#ffea92"/>
    <path id="Path_403" data-name="Path 403" d="M74.836,16.505a41.451,41.451,0,1,0,.131,58.75A41.59,41.59,0,0,0,74.836,16.505ZM66.843,67.131A30.13,30.13,0,0,1,24.3,67.04,30.115,30.115,0,0,1,24.209,24.5,30.154,30.154,0,0,1,75.587,45.877,29.747,29.747,0,0,1,66.843,67.131Zm0,0" transform="translate(-2.987 -2.983)" fill="#f9a7a7"/>
    <path id="Path_404" data-name="Path 404" d="M327.753,336.935a8.836,8.836,0,0,1-6.292-2.607l-26.235-26.236a3.54,3.54,0,0,1,0-5l7.581-7.581a3.537,3.537,0,0,1,5,0l26.235,26.236a8.9,8.9,0,0,1-6.292,15.189ZM305.308,296.5a1.5,1.5,0,0,0-1.067.442l-7.581,7.581a1.511,1.511,0,0,0,0,2.133L322.9,332.892a6.869,6.869,0,0,0,9.714-9.713l-26.237-26.236A1.5,1.5,0,0,0,305.308,296.5Zm0,0" transform="translate(-219.569 -219.56)" fill="#af85a4"/>
    <path id="Path_405" data-name="Path 405" d="M273.646,282.363a1.011,1.011,0,0,1-.717-.3l-8.428-8.427a1.013,1.013,0,0,1,.1-1.519,39.074,39.074,0,0,0,7.23-7.231,1.015,1.015,0,0,1,1.52-.1l8.427,8.427a1.014,1.014,0,0,1,0,1.435l-7.411,7.411A1.011,1.011,0,0,1,273.646,282.363Zm-6.906-9.355,6.906,6.906,5.977-5.977-6.906-6.906a40.448,40.448,0,0,1-5.977,5.977Zm0,0" transform="translate(-197.188 -197.186)" fill="#af85a4"/>
    <path id="Path_406" data-name="Path 406" d="M42.727,85.37h-.1A42.718,42.718,0,0,1,0,42.742,42.091,42.091,0,0,1,12.379,12.673a42.671,42.671,0,0,1,72.7,30.249A42.269,42.269,0,0,1,42.727,85.37ZM42.352,2.322a40.51,40.51,0,0,0,.282,81.019h.093a40.437,40.437,0,0,0,28.4-69.1A40.6,40.6,0,0,0,42.352,2.322Zm.318,71.586h-.077a31.076,31.076,0,1,1-.185-62.152h.077a31.076,31.076,0,1,1,.185,62.152Zm-.263-60.123a29.047,29.047,0,0,0,.19,58.093h.071a29.047,29.047,0,0,0-.19-58.093Zm0,0" transform="translate(0 0)" fill="#af85a4"/>
    <path id="Path_407" data-name="Path 407" d="M140.026,108.369a13.664,13.664,0,1,0-20.16,0h-.036a15.3,15.3,0,0,1,3.624,9.906c0,.229-.007.457-.017.684h13.015c-.01-.227-.017-.455-.017-.684a15.3,15.3,0,0,1,3.625-9.906Zm0,0" transform="translate(-86.786 -63.579)" fill="#ffea94"/>
    <path id="Path_408" data-name="Path 408" d="M207.077,60.375l.056.056a2.011,2.011,0,0,0,2.843,0l4.4-4.4a2.011,2.011,0,0,0,0-2.843l-.056-.055a2.009,2.009,0,0,0-2.843,0l-4.4,4.4A2.011,2.011,0,0,0,207.077,60.375Zm0,0" transform="translate(-154.112 -38.994)" fill="#ffe164"/>
    <path id="Path_409" data-name="Path 409" d="M162.938,37.46h-.074a2.013,2.013,0,0,1-2.012-2.013V29.2a2.013,2.013,0,0,1,2.012-2.012h.074a2.012,2.012,0,0,1,2.012,2.012v6.25A2.013,2.013,0,0,1,162.938,37.46Zm0,0" transform="translate(-120.051 -20.069)" fill="#ffe164"/>
    <path id="Path_410" data-name="Path 410" d="M106.512,60.375l-.056.056a2.011,2.011,0,0,1-2.843,0l-4.4-4.4a2.011,2.011,0,0,1,0-2.843l.056-.055a2.008,2.008,0,0,1,2.842,0l4.4,4.4A2.011,2.011,0,0,1,106.512,60.375Zm0,0" transform="translate(-73.606 -38.994)" fill="#ffe164"/>
    <path id="Path_411" data-name="Path 411" d="M226.844,100.7v-.079a2.01,2.01,0,0,1,2.009-2.01h6.228a2.011,2.011,0,0,1,2.01,2.01v.079a2.01,2.01,0,0,1-2.01,2.009h-6.228A2.009,2.009,0,0,1,226.844,100.7Zm0,0" transform="translate(-169.304 -73.381)" fill="#ffdc85"/>
    <path id="Path_412" data-name="Path 412" d="M70.621,100.7v-.079a2.011,2.011,0,0,1,2.01-2.01H78.86a2.01,2.01,0,0,1,2.009,2.01v.079a2.009,2.009,0,0,1-2.009,2.009H72.631A2.009,2.009,0,0,1,70.621,100.7Zm0,0" transform="translate(-52.708 -73.381)" fill="#ffe164"/>
    <path id="Path_413" data-name="Path 413" d="M154.805,221.564H141.272a.749.749,0,0,1-.748-.749v-2.6a.748.748,0,0,1,.748-.748h13.534a.748.748,0,0,1,.748.748v2.6A.749.749,0,0,1,154.805,221.564Zm0,0" transform="translate(-104.88 -162.085)" fill="#6bdddd"/>
    <path id="Path_414" data-name="Path 414" d="M156.7,237.721H145.743a1.185,1.185,0,0,1-1.184-1.184v-2.916h13.323v2.916A1.183,1.183,0,0,1,156.7,237.721Zm0,0" transform="translate(-107.891 -174.143)" fill="#6bdddd"/>
    <path id="Path_415" data-name="Path 415" d="M155.433,255.251H152.7a4.1,4.1,0,0,1-4.1-4.1v-1.366h10.932v1.366A4.1,4.1,0,0,1,155.433,255.251Zm0,0" transform="translate(-110.909 -186.207)" fill="#6bdddd"/>
    <g id="Group_146" data-name="Group 146" transform="translate(28.48 20.887)">
      <path id="Path_416" data-name="Path 416" d="M151.82,219.59H138.286a1.765,1.765,0,0,1-1.763-1.764v-2.6a1.765,1.765,0,0,1,1.763-1.763H151.82a1.765,1.765,0,0,1,1.763,1.763v2.6A1.765,1.765,0,0,1,151.82,219.59Zm-13.267-2.029h13v-2.07h-13Zm0,0" transform="translate(-130.374 -179.984)" fill="#3762cc"/>
      <path id="Path_417" data-name="Path 417" d="M153.713,235.753H142.757a2.2,2.2,0,0,1-2.2-2.2V230.64a1.015,1.015,0,0,1,1.015-1.015H154.9a1.015,1.015,0,0,1,1.015,1.015v2.916A2.2,2.2,0,0,1,153.713,235.753Zm-11.124-4.1v1.9a.169.169,0,0,0,.168.168h10.957a.17.17,0,0,0,.168-.168v-1.9Zm0,0" transform="translate(-133.386 -192.048)" fill="#3762cc"/>
      <path id="Path_418" data-name="Path 418" d="M152.448,253.28h-2.733a5.119,5.119,0,0,1-5.114-5.115V246.8a1.015,1.015,0,0,1,1.015-1.015h10.932a1.015,1.015,0,0,1,1.015,1.015v1.365A5.12,5.12,0,0,1,152.448,253.28Zm-5.817-5.465v.351a3.088,3.088,0,0,0,3.084,3.085h2.733a3.089,3.089,0,0,0,3.085-3.085v-.351Zm0,0" transform="translate(-136.403 -204.109)" fill="#3762cc"/>
      <path id="Path_419" data-name="Path 419" d="M133.467,116.987H120.453a1.014,1.014,0,0,1-1.014-1.058c.009-.213.016-.425.016-.64a14.355,14.355,0,0,0-3.386-9.251,1.062,1.062,0,0,1-.114-.164,14.679,14.679,0,1,1,22.009,0,.958.958,0,0,1-.114.164,14.355,14.355,0,0,0-3.386,9.251c0,.215.007.427.016.64a1.014,1.014,0,0,1-1.014,1.058Zm-11.987-2.029h10.96a16.391,16.391,0,0,1,3.7-10.034.973.973,0,0,1,.155-.226,12.649,12.649,0,1,0-18.664,0,1,1,0,0,1,.161.234A16.391,16.391,0,0,1,121.48,114.958Zm0,0" transform="translate(-112.281 -81.48)" fill="#3762cc"/>
    </g>
    <path id="Path_420" data-name="Path 420" d="M163.807,129c-1.861,0-3.159-2-1.916-4.02a.57.57,0,0,1,.144-.157c2-1.483,4.147-.16,4.147,1.77A2.372,2.372,0,0,1,163.807,129Zm-1.588-23.141h2.947a.508.508,0,0,1,.507.521l-.4,14.973a.508.508,0,0,1-.507.493H162.62a.507.507,0,0,1-.507-.493l-.4-14.973A.508.508,0,0,1,162.219,105.855Zm0,0" transform="translate(-120.461 -78.786)" fill="#f9a7a7"/>
  </g>
</svg>
