<svg xmlns="http://www.w3.org/2000/svg" width="345.109" height="421.359" viewBox="0 0 345.109 421.359">
  <path id="Path_274" data-name="Path 274" d="M421.054,341.4c-4.142,0-7.5,2.764-7.5,6.172V405.6c0,1.879-1.858,3.408-4.141,3.408H369.1V287.463c0-3.409-3.358-6.172-7.5-6.172s-7.5,2.764-7.5,6.172v121.55H272.911L296.454,387.7a9.813,9.813,0,0,0,3.244-8.877c-.01-.063-.022-.125-.035-.188L277.24,269.618l6.041-7.484c3.34,1.952,5.913,3.832,10.738,3.832,4.908,0,9.5-2.261,11.755-5.982h0l23.65-39.009L383.3,238.145c1.949.688,30.252,11.178,30.252,38.875v41.749c0,3.408,3.357,6.172,7.5,6.172s7.5-2.764,7.5-6.172V277.02c0-36.494-37.969-49.759-39.585-50.306-.047-.016-.1-.032-.143-.047l-89.668-28.578V180.782c14.242-9.115,24.117-22.627,26.6-38.043a36.5,36.5,0,0,0,19.071-6.4c7.027-4.973,11.059-12.211,11.059-19.855a23.653,23.653,0,0,0-7.737-17.12V76.5c0-42.18-41.7-76.5-92.953-76.5S162.24,34.317,162.24,76.5V99.961c-5.009,4.672-7.733,10.423-7.733,16.52,0,7.646,4.03,14.883,11.059,19.857a36.478,36.478,0,0,0,19.061,6.4c2.5,15.7,12.662,29.721,28.117,38.958v16.393l-89.571,28.577-.141.046c-1.617.547-39.585,13.813-39.585,50.306V405.6c0,8.686,8.587,15.753,19.142,15.753h71.457c4.142,0,7.5-2.764,7.5-6.172s-3.358-6.172-7.5-6.172H157.909V287.463c0-3.409-3.358-6.172-7.5-6.172s-7.5,2.764-7.5,6.172v121.55H102.59c-2.283,0-4.141-1.529-4.141-3.408V277.019c0-27.791,28.493-38.256,30.243-38.872l53.834-17.175,23.652,39.01c2.263,3.73,6.858,5.983,11.756,5.983,4.8,0,7.349-1.851,10.738-3.832l6.041,7.484L212.292,378.634c-.013.062-.024.123-.035.186A9.814,9.814,0,0,0,215.5,387.7l23.543,21.315H209.049c-4.142,0-7.5,2.764-7.5,6.172s3.358,6.172,7.5,6.172H409.414c10.555,0,19.142-7.068,19.142-15.753V347.575C428.554,344.165,425.2,341.4,421.054,341.4ZM315.375,216.5l-22.049,36.367c-.548-.32-12.233-7.152-26.517-15.5L294.044,209.7Zm-44.332,38.485-5.718,7.083h-18.7l-5.718-7.083,15.07-8.808Zm-43.3-54.9V188.529a90.67,90.67,0,0,0,28.36,4.424,83.557,83.557,0,0,0,28.052-4.811v11.988l-28.181,28.627Zm113.138-83.6a12.958,12.958,0,0,1-5.839,10.5,19.358,19.358,0,0,1-8.661,3.281v-27.55C335,103.86,340.881,109.744,340.881,116.482ZM184.007,130.258c-8.718-1.164-14.5-7.1-14.5-13.777,0-6.6,6.647-11.969,14.5-13.463Zm.4-39.818a43.967,43.967,0,0,0-7.168,1.329V76.5c0-35.374,34.968-64.152,77.951-64.152S333.144,41.124,333.144,76.5V91.346a39.777,39.777,0,0,0-6.762-1.076c0-5.956.063-4.807-23.612-25.754-4.354-3.85-11.556-4.656-17.037-1.709a168.777,168.777,0,0,1-87.415,19.366C191.867,81.776,185.991,85.272,184.41,90.441Zm14.6,44.677V94.581a187.082,187.082,0,0,0,93.739-20.807c10.858,9.594,16.738,14.627,18.634,16.541v44.8c0,25.057-24.826,45.49-55.277,45.49C221.91,180.608,199.008,158.778,199.008,135.118Zm19.615,117.746L196.574,216.5l21.293-6.787,27.241,27.672C231.255,245.478,219.88,252.129,218.623,252.864Zm8.6,127.1,21.709-105.556h14.071l21.709,105.556L255.973,405.99Z" transform="translate(-83.447)"/>
</svg>
