<svg xmlns="http://www.w3.org/2000/svg" width="108.885" height="118.338" viewBox="0 0 108.885 118.338">
  <g id="growth" transform="translate(-11 -23.281)">
    <path id="Path_421" data-name="Path 421" d="M0,0H38.715V14.518H0Z" transform="translate(54.554 141.619) rotate(180)" fill="#f7c469"/>
    <path id="Path_422" data-name="Path 422" d="M24,55h4.839v7.259H24Z" transform="translate(18.456 72.101)" fill="#aa701b"/>
    <path id="Path_423" data-name="Path 423" d="M20,55h4.839v7.259H20Z" transform="translate(12.777 72.101)" fill="#aa701b"/>
    <path id="Path_424" data-name="Path 424" d="M16,55h4.839v7.259H16Z" transform="translate(7.098 72.101)" fill="#aa701b"/>
    <path id="Path_425" data-name="Path 425" d="M0,0H38.715V14.518H0Z" transform="translate(59.393 127.101) rotate(180)" fill="#ffd782"/>
    <path id="Path_426" data-name="Path 426" d="M26,49h4.839v7.259H26Z" transform="translate(21.295 63.865)" fill="#aa701b"/>
    <path id="Path_427" data-name="Path 427" d="M22,49h4.839v7.259H22Z" transform="translate(15.616 63.865)" fill="#aa701b"/>
    <path id="Path_428" data-name="Path 428" d="M18,49h4.839v7.259H18Z" transform="translate(9.938 63.865)" fill="#aa701b"/>
    <path id="Path_429" data-name="Path 429" d="M37,55H75.715V69.518H37Z" transform="translate(36.912 72.101)" fill="#f7c469"/>
    <path id="Path_430" data-name="Path 430" d="M40,55h4.839v7.259H40Z" transform="translate(41.171 72.101)" fill="#aa701b"/>
    <path id="Path_431" data-name="Path 431" d="M44,55h4.839v7.259H44Z" transform="translate(46.849 72.101)" fill="#aa701b"/>
    <path id="Path_432" data-name="Path 432" d="M48,55h4.839v7.259H48Z" transform="translate(52.528 72.101)" fill="#aa701b"/>
    <path id="Path_433" data-name="Path 433" d="M35,49H73.715V63.518H35Z" transform="translate(34.072 63.583)" fill="#ffd782"/>
    <path id="Path_434" data-name="Path 434" d="M38,49h4.839v7.259H38Z" transform="translate(38.331 63.865)" fill="#aa701b"/>
    <path id="Path_435" data-name="Path 435" d="M42,49h4.839v7.259H42Z" transform="translate(44.01 63.865)" fill="#aa701b"/>
    <path id="Path_436" data-name="Path 436" d="M46,49h4.839v7.259H46Z" transform="translate(49.689 63.865)" fill="#aa701b"/>
    <path id="Path_441" data-name="Path 441" d="M0,0H38.715V14.518H0Z" transform="translate(54.554 112.98) rotate(180)" fill="#f7c469"/>
    <path id="Path_442" data-name="Path 442" d="M24,43h4.839v7.259H24Z" transform="translate(18.456 55.535)" fill="#aa701b"/>
    <path id="Path_443" data-name="Path 443" d="M20,43h4.839v7.259H20Z" transform="translate(12.777 55.535)" fill="#aa701b"/>
    <path id="Path_444" data-name="Path 444" d="M16,43h4.839v7.259H16Z" transform="translate(7.098 55.535)" fill="#aa701b"/>
    <path id="Path_445" data-name="Path 445" d="M0,0H38.715V14.518H0Z" transform="translate(59.393 98.661) rotate(180)" fill="#ffd782"/>
    <path id="Path_446" data-name="Path 446" d="M26,37h4.839v7.259H26Z" transform="translate(21.295 47.204)" fill="#aa701b"/>
    <path id="Path_447" data-name="Path 447" d="M22,37h4.839v7.259H22Z" transform="translate(15.616 47.204)" fill="#aa701b"/>
    <path id="Path_448" data-name="Path 448" d="M18,37h4.839v7.259H18Z" transform="translate(9.938 47.204)" fill="#aa701b"/>
    <path id="Path_453" data-name="Path 453" d="M40.036,3,11,27.2H30.357V61.072H49.715V27.2H69.072Z" transform="translate(0 20.281)" fill="#55b56a"/>
    <path id="Path_454" data-name="Path 454" d="M60.036,15,31,39.2H50.357V73.072H69.715V39.2H89.072Z" transform="translate(30.813 32.533)" fill="#8ec13f"/>
    <g id="Group_147" data-name="Group 147" transform="translate(11 47.533)">
      <path id="Path_455" data-name="Path 455" d="M11,5h4.839V9.839H11Z" transform="translate(-11 -5)" fill="#87cee9"/>
      <path id="Path_456" data-name="Path 456" d="M46,11h4.839v4.839H46Z" transform="translate(45.948 -8.58)" fill="#87cee9"/>
      <path id="Path_457" data-name="Path 457" d="M31,17h4.839v4.839H31Z" transform="translate(17.393 12.036)" fill="#87cee9"/>
      <path id="Path_458" data-name="Path 458" d="M51,32h4.839v4.839H51Z" transform="translate(45.787 33.331)" fill="#87cee9"/>
      <path id="Path_459" data-name="Path 459" d="M11,18h4.839v4.839H11Z" transform="translate(-11 13.456)" fill="#87cee9"/>
    </g>
  </g>
</svg>
