<svg xmlns="http://www.w3.org/2000/svg" width="493.718" height="505.855" viewBox="0 0 493.718 505.855">
  <g id="Group_163" data-name="Group 163" transform="translate(-302.282 -136.493)">
    <path id="Path_493" data-name="Path 493" d="M536.593,598.585C445.774,579.461,376.565,512.259,336.45,404.25c-28.575-76.94-32.456-148.138-32.608-151.127l-1.56-30.8,242.832-85.831,242.832,85.831-1.56,30.8c-.152,2.989-4.034,74.187-32.608,151.127C713.663,512.259,644.454,579.461,553.634,598.585l-8.521,1.8Z" fill="#cceaff"/>
    <path id="Path_494" data-name="Path 494" d="M701.555,219.242,509.22,151.258v0l0,0v0L316.878,219.242s13.025,257.6,192.339,295.366h0C688.531,476.846,701.555,219.242,701.555,219.242Z" transform="translate(35.897 36.306)" fill="#e8f4fd"/>
    <g id="Group_162" data-name="Group 162" transform="translate(524.464 308.922)">
      <path id="Path_495" data-name="Path 495" d="M372.339,257.672l88.191-12.6h77.53l69.293,13.568-119.2,60.086Z" transform="translate(-352.165 -41.88)" fill="#073a93"/>
      <path id="Path_496" data-name="Path 496" d="M548.576,312.082s-156.029-85.769-174.443-57.665c-26.6,40.6,14.052,61.055,158.938,99.821Z" transform="translate(-366.508 -32.811)" fill="#073a93"/>
      <g id="Group_157" data-name="Group 157" transform="translate(165.156 283.322)">
        <path id="Path_497" data-name="Path 497" d="M474.169,307.047h0a18.285,18.285,0,0,0-9.9-23.89l-36.03-14.92-13.99,33.791,36.03,14.917A18.286,18.286,0,0,0,474.169,307.047Z" transform="translate(-414.249 -268.236)" fill="#1858b5"/>
        <path id="Path_498" data-name="Path 498" d="M424.377,269.811l27.26,11.288a12.39,12.39,0,1,1-9.482,22.894l-27.26-11.288Z" transform="translate(-412.66 -264.362)" fill="#489bff"/>
        <path id="Path_499" data-name="Path 499" d="M416.608,276.356l36.03,14.92a18.251,18.251,0,0,0,22.424-7.171,18.023,18.023,0,0,1-24.783,12.869l-36.03-14.917Z" transform="translate(-414.249 -248.266)" fill="#063272" opacity="0.45"/>
        <path id="Path_500" data-name="Path 500" d="M418.453,287.012l5.756-13.91a1.383,1.383,0,0,1,1.8-.744h0a1.378,1.378,0,0,1,.744,1.8L421,288.064a1.38,1.38,0,0,1-1.8.747h0A1.381,1.381,0,0,1,418.453,287.012Z" transform="translate(-404.166 -258.355)" fill="#e6e6e6"/>
        <path id="Path_501" data-name="Path 501" d="M420.9,288.027l5.76-13.91a1.381,1.381,0,0,1,1.8-.744h0a1.381,1.381,0,0,1,.747,1.8l-5.76,13.91a1.381,1.381,0,0,1-1.8.744h0A1.383,1.383,0,0,1,420.9,288.027Z" transform="translate(-398.137 -255.858)" fill="#e6e6e6"/>
        <path id="Path_502" data-name="Path 502" d="M423.6,289.145l5.76-13.91a1.385,1.385,0,0,1,1.8-.747h0a1.385,1.385,0,0,1,.747,1.8l-5.76,13.91a1.379,1.379,0,0,1-1.8.747h0A1.379,1.379,0,0,1,423.6,289.145Z" transform="translate(-391.505 -253.112)" fill="#e6e6e6"/>
      </g>
      <path id="Path_503" data-name="Path 503" d="M579.689,293.132c-2.4-8.244-14.339-22.2-24.956-50.829-11.036-29.761-58.069-32.968-58.069-32.968l-18.259,9.773-18.259-9.773s-47.034,3.207-58.073,32.968c-10.614,28.626-22.555,42.585-24.956,50.829s10.558,61.587,47.753,69.139H531.939C569.131,354.719,582.09,301.372,579.689,293.132Z" transform="translate(-341.094 -129.775)" fill="#489bff"/>
      <g id="Group_160" data-name="Group 160" transform="translate(100.271)">
        <g id="Group_158" data-name="Group 158" transform="translate(18.892 79.754)">
          <path id="Path_504" data-name="Path 504" d="M439.4,209.391v14.633s-3.376,16.339-19.293,19.058a24.84,24.84,0,0,1-19.151-19.058V209.391Z" transform="translate(-400.954 -209.391)" fill="#f49290"/>
        </g>
        <g id="Group_159" data-name="Group 159">
          <path id="Path_505" data-name="Path 505" d="M396.743,237.357s-5.442-34.193,7.566-38.347c3.542-1.131.955-12.423,20.753-12.561,27.032-.19,48.331-3.823,44.782,51.379Z" transform="translate(-395.196 -186.337)" fill="#073a93"/>
          <path id="Path_506" data-name="Path 506" d="M414.174,208.814a9.34,9.34,0,1,0-9.34,9.34A9.338,9.338,0,0,0,414.174,208.814Z" transform="translate(-395.493 -154.019)" fill="#ffb5b1"/>
          <path id="Path_507" data-name="Path 507" d="M430.62,208.814a9.34,9.34,0,1,0-9.34,9.34A9.338,9.338,0,0,0,430.62,208.814Z" transform="translate(-355.046 -154.019)" fill="#ffb5b1"/>
          <path id="Path_508" data-name="Path 508" d="M459.047,206.435l-.048-.017v-.007h-.021c-.38-.121-7.832-2.6-9.257-12.4l-4.089,1.149a62.47,62.47,0,0,1-34.587-.329l-3.262-.82c-1.425,9.783-9.244,12.267-9.669,12.4h-.076l-.259,15.135c0,8.808,3.719,19.511,9.672,27.748a26.019,26.019,0,0,0,41.89,0c5.954-8.237,9.669-18.94,9.669-27.748L459,206.476Z" transform="translate(-389.873 -167.46)" fill="#ffb5b1"/>
        </g>
      </g>
      <rect id="Rectangle_33" data-name="Rectangle 33" width="118.233" height="78.822" rx="2.866" transform="translate(79.142 164.268)" fill="#d2ebff"/>
      <circle id="Ellipse_52" data-name="Ellipse 52" cx="12.276" cy="12.276" r="12.276" transform="translate(125.619 190.596)" fill="#89caf7"/>
      <path id="Path_509" data-name="Path 509" d="M392.37,312.082S548.4,226.313,566.813,254.417c26.6,40.6-14.055,61.055-158.938,99.821Z" transform="translate(-302.902 -32.811)" fill="#073a93"/>
      <g id="Group_161" data-name="Group 161" transform="translate(45.064 283.322)">
        <path id="Path_510" data-name="Path 510" d="M380.931,307.047h0a18.282,18.282,0,0,1,9.9-23.89l36.026-14.92,13.993,33.791-36.03,14.917A18.286,18.286,0,0,1,380.931,307.047Z" transform="translate(-379.534 -268.236)" fill="#1858b5"/>
        <path id="Path_511" data-name="Path 511" d="M428.189,292.705l-27.26,11.288a12.39,12.39,0,1,1-9.482-22.894l27.26-11.288Z" transform="translate(-369.107 -264.362)" fill="#489bff"/>
        <path id="Path_512" data-name="Path 512" d="M438.133,276.356l-36.03,14.92a18.251,18.251,0,0,1-22.424-7.171,18.026,18.026,0,0,0,.892,2.971,18.286,18.286,0,0,0,23.891,9.9l36.03-14.917Z" transform="translate(-379.176 -248.266)" fill="#063272" opacity="0.45"/>
        <path id="Path_513" data-name="Path 513" d="M399.106,287.012l-5.76-13.91a1.379,1.379,0,0,0-1.8-.744h0a1.378,1.378,0,0,0-.744,1.8l5.76,13.907a1.377,1.377,0,0,0,1.8.747h0A1.381,1.381,0,0,0,399.106,287.012Z" transform="translate(-352.077 -258.355)" fill="#e6e6e6"/>
        <path id="Path_514" data-name="Path 514" d="M396.654,288.027l-5.756-13.91a1.381,1.381,0,0,0-1.8-.744h0a1.378,1.378,0,0,0-.747,1.8l5.76,13.91a1.381,1.381,0,0,0,1.8.744h0A1.381,1.381,0,0,0,396.654,288.027Z" transform="translate(-358.107 -255.858)" fill="#e6e6e6"/>
        <path id="Path_515" data-name="Path 515" d="M393.96,289.145l-5.76-13.91a1.385,1.385,0,0,0-1.8-.747h0a1.379,1.379,0,0,0-.747,1.8l5.76,13.91a1.38,1.38,0,0,0,1.8.747h0A1.385,1.385,0,0,0,393.96,289.145Z" transform="translate(-364.74 -253.112)" fill="#e6e6e6"/>
      </g>
    </g>
  </g>
</svg>
