<svg xmlns="http://www.w3.org/2000/svg" width="148.833" height="148.818" viewBox="0 0 148.833 148.818">
  <g id="mission" transform="translate(0.003)">
    <g id="Group_75" data-name="Group 75" transform="translate(54.27)">
      <g id="Group_74" data-name="Group 74">
        <path id="Path_155" data-name="Path 155" d="M49.055,31H13.4A4.652,4.652,0,0,1,8.75,26.353V4.651A4.652,4.652,0,0,1,13.4,0H49.055a4.654,4.654,0,0,1,3.528,7.683L45.88,15.5l6.709,7.825A4.649,4.649,0,0,1,49.055,31Z" transform="translate(-8.75)" fill="#aad4c8"/>
      </g>
    </g>
    <g id="Group_77" data-name="Group 77" transform="translate(54.27)">
      <g id="Group_76" data-name="Group 76">
        <path id="Path_156" data-name="Path 156" d="M13.4,49.606A4.652,4.652,0,0,1,8.75,44.955V4.651a4.651,4.651,0,0,1,9.3,0v40.3A4.652,4.652,0,0,1,13.4,49.606Z" transform="translate(-8.75)" fill="#607d8b"/>
      </g>
    </g>
    <g id="Group_79" data-name="Group 79" transform="translate(33.808 40.284)">
      <g id="Group_78" data-name="Group 78">
        <path id="Path_157" data-name="Path 157" d="M56.048,46.947,42.841,58.108a4.587,4.587,0,0,1-6.263-.248l-6.015-6.015L24.548,57.86a4.6,4.6,0,0,1-6.263.248L5.45,47.319l4.589-8.309L26.471,8.936a4.622,4.622,0,0,1,4.092-2.418,4.328,4.328,0,0,1,4.03,2.356L51.4,38.7Z" transform="translate(-5.45 -6.497)" fill="#eceff1"/>
      </g>
    </g>
    <g id="Group_81" data-name="Group 81" transform="translate(54.27)">
      <g id="Group_80" data-name="Group 80">
        <path id="Path_158" data-name="Path 158" d="M13.4,0A4.652,4.652,0,0,0,8.75,4.651v39.1l.558-1.023A4.622,4.622,0,0,1,13.4,40.3Z" transform="translate(-8.75)" fill="#546d79"/>
      </g>
    </g>
    <g id="Group_83" data-name="Group 83" transform="translate(33.808 40.305)">
      <g id="Group_82" data-name="Group 82">
        <path id="Path_159" data-name="Path 159" d="M30.563,6.5a4.622,4.622,0,0,0-4.092,2.418l-.558,1.023L10.039,38.992,5.45,47.3,18.286,58.09a4.6,4.6,0,0,0,6.263-.248l6.015-6.015Z" transform="translate(-5.45 -6.5)" fill="#cdd0d2"/>
      </g>
    </g>
    <g id="Group_85" data-name="Group 85" transform="translate(76.952 80.616)">
      <g id="Group_84" data-name="Group 84">
        <path id="Path_160" data-name="Path 160" d="M79.638,81.2H17.06a4.644,4.644,0,0,1-4.142-6.759L42.941,15.537a4.648,4.648,0,0,1,8.21-.136L83.705,74.308a4.643,4.643,0,0,1-4.068,6.9Z" transform="translate(-12.408 -13.001)" fill="#94c1e5"/>
      </g>
    </g>
    <g id="Group_87" data-name="Group 87" transform="translate(76.952 80.61)">
      <g id="Group_86" data-name="Group 86">
        <path id="Path_161" data-name="Path 161" d="M47,13a4.653,4.653,0,0,0-4.061,2.536L12.917,74.443a4.651,4.651,0,0,0,4.142,6.765H47.084v-68.2C47.059,13.006,47.034,13,47,13Z" transform="translate(-12.408 -13)" fill="#7eacd1"/>
      </g>
    </g>
    <g id="Group_89" data-name="Group 89" transform="translate(-0.003 80.734)">
      <g id="Group_88" data-name="Group 88">
        <path id="Path_162" data-name="Path 162" d="M118.758,74.159,84.406,13.02,71.2,24.181a4.587,4.587,0,0,1-6.263-.248l-6.015-6.015-6.015,6.015a4.6,4.6,0,0,1-6.263.248L33.808,13.392.572,74.221A4.657,4.657,0,0,0,.634,78.81,4.761,4.761,0,0,0,4.664,81.1H114.728a4.684,4.684,0,0,0,4.03-2.294A4.774,4.774,0,0,0,118.758,74.159Z" transform="translate(0.003 -13.02)" fill="#94c1e5"/>
      </g>
    </g>
    <g id="Group_91" data-name="Group 91" transform="translate(-0.003 81.106)">
      <g id="Group_90" data-name="Group 90">
        <path id="Path_163" data-name="Path 163" d="M33.808,13.08.572,73.909A4.657,4.657,0,0,0,.634,78.5a4.761,4.761,0,0,0,4.03,2.294H58.921V17.607l-6.015,6.015a4.623,4.623,0,0,1-3.268,1.358,4.575,4.575,0,0,1-2.995-1.11Z" transform="translate(0.003 -13.08)" fill="#7eacd1"/>
      </g>
    </g>
  </g>
</svg>
