<svg xmlns="http://www.w3.org/2000/svg" width="179.156" height="291" viewBox="0 0 179.156 291">
  <g id="Group_152" data-name="Group 152" transform="translate(-301.124 -226.271)">
    <g id="Group_150" data-name="Group 150" transform="translate(301.124 226.271)">
      <g id="Group_148" data-name="Group 148" transform="translate(49.705 14.925)">
        <path id="Path_461" data-name="Path 461" d="M346.086,411.275s-40.3-64.347-27.832-73.671,24.705,28.558,31.087,22.479-22.233-60.185-8.723-71.822,12.5,27.876,23.98,35.216-6.21-53.846,7.526-63.406,20.344,20.88,20.344,20.88,15.227-60.589,35.7-48.712-31.391,72.882-19.214,70.79,24.689-22.681,35.253-8.807-58.623,49.2-47.528,48.291,30.74-14.667,34.15-2.405-56.14,34.38-49.971,38.623,37.3-19.794,42.206-2.1S358.449,422.534,346.086,411.275Z" transform="translate(-315.859 -230.696)" fill="#073a93"/>
        <path id="Path_462" data-name="Path 462" d="M323.37,420.168a210.416,210.416,0,0,0,18.64-40.458c2.55-7.509,4.729-15.281,6.834-22.8.961-3.424,1.919-6.848,2.918-10.258A496.926,496.926,0,0,1,398.4,237.536l.786.455a496,496,0,0,0-46.557,108.921c-1,3.407-1.953,6.827-2.911,10.244-2.112,7.529-4.294,15.311-6.851,22.843a211.249,211.249,0,0,1-18.725,40.634Z" transform="translate(-298.034 -214.462)" fill="#d2ebff"/>
        <path id="Path_463" data-name="Path 463" d="M342.941,286.939a.444.444,0,0,1-.175-.236,205.727,205.727,0,0,1-9.111-42.7.453.453,0,0,1,.9-.091,205.148,205.148,0,0,0,9.074,42.513.458.458,0,0,1-.29.573A.467.467,0,0,1,342.941,286.939Z" transform="translate(-273.633 -200.301)" fill="#d2ebff"/>
        <path id="Path_464" data-name="Path 464" d="M334.864,282.7a.542.542,0,0,1-.111-.1.456.456,0,0,1,.1-.634c12.494-9.128,25.414-18.566,39.264-26.109a34.481,34.481,0,0,1,8.248-3.515.453.453,0,0,1,.212.88,33.732,33.732,0,0,0-8.025,3.434c-13.8,7.512-26.692,16.934-39.166,26.041A.446.446,0,0,1,334.864,282.7Z" transform="translate(-271.223 -179.354)" fill="#d2ebff"/>
        <path id="Path_465" data-name="Path 465" d="M349.6,307.992a.52.52,0,0,1-.121-.121c-5.269-7.93-11.934-18.505-16.738-29.981a233.124,233.124,0,0,1-8.062-24.078.454.454,0,0,1,.87-.256,232.616,232.616,0,0,0,8.028,23.984c4.773,11.4,11.412,21.933,16.66,29.826a.456.456,0,0,1-.638.627Z" transform="translate(-294.981 -177.218)" fill="#d2ebff"/>
        <path id="Path_466" data-name="Path 466" d="M332.147,279.609a.453.453,0,0,1,.411-.8,7.75,7.75,0,0,0,4.071.027A68.378,68.378,0,0,0,347.4,275.5c.648-.243,1.3-.482,1.946-.718,10.3-3.761,21.045-6.628,31.438-9.4a.454.454,0,1,1,.233.877c-10.373,2.769-21.1,5.63-31.357,9.374-.651.239-1.3.479-1.943.718a69.008,69.008,0,0,1-10.912,3.38,8.691,8.691,0,0,1-4.551-.064A.387.387,0,0,1,332.147,279.609Z" transform="translate(-277.667 -148.424)" fill="#d2ebff"/>
        <path id="Path_467" data-name="Path 467" d="M352.7,313.981c-12.046-8.285-25.852-30.605-34.016-47.2a.454.454,0,0,1,.816-.4c8.113,16.5,21.811,38.67,33.715,46.854a.455.455,0,0,1-.516.749Z" transform="translate(-309.257 -146.618)" fill="#d2ebff"/>
        <path id="Path_468" data-name="Path 468" d="M329.308,289.375c-.108-.074-.212-.155-.314-.24a.451.451,0,0,1-.064-.638.459.459,0,0,1,.638-.064c1.7,1.38,4.257.948,6.77.26L380.3,276.655a.453.453,0,1,1,.243.874l-43.966,12.039C333.973,290.282,331.3,290.741,329.308,289.375Z" transform="translate(-285.083 -121.665)" fill="#d2ebff"/>
      </g>
      <g id="Group_149" data-name="Group 149">
        <path id="Path_469" data-name="Path 469" d="M375.706,420.6s-69.768-30.224-64.766-45,36.586,9.543,38.4.908-52.494-37.041-47.95-54.312,26.132,15.908,39.77,15.453-35.678-40.9-29.772-56.582,28.635,5.68,28.635,5.68-21.818-58.63,1.818-60.448,15.453,77.945,24.314,69.309,7.5-32.723,24.088-27.269S369.8,342.2,378.431,335.152s17.045-29.543,26.814-21.359-26.814,60.219-19.315,60.219,19.544-37.5,33.634-25.677S392.292,422.872,375.706,420.6Z" transform="translate(-301.124 -226.271)" fill="#489bff"/>
        <path id="Path_470" data-name="Path 470" d="M355.61,426.866a210.744,210.744,0,0,0-7.573-43.956c-2.159-7.644-4.77-15.291-7.3-22.688-1.15-3.37-2.3-6.736-3.414-10.12A497.558,497.558,0,0,1,313.9,233.6l.9-.071a496.649,496.649,0,0,0,23.39,116.285c1.113,3.377,2.26,6.743,3.41,10.109,2.53,7.408,5.144,15.068,7.31,22.732a211.474,211.474,0,0,1,7.607,44.148Z" transform="translate(-270.811 -209.034)" fill="#d2ebff"/>
        <path id="Path_471" data-name="Path 471" d="M339.6,276.069a.461.461,0,0,1-.277-.091,206.349,206.349,0,0,1-31.749-30.065.453.453,0,1,1,.691-.587,205.78,205.78,0,0,0,31.607,29.931.456.456,0,0,1,.088.637A.461.461,0,0,1,339.6,276.069Z" transform="translate(-286.075 -181.43)" fill="#d2ebff"/>
        <path id="Path_472" data-name="Path 472" d="M318.736,296.061a.475.475,0,0,1-.152-.024.455.455,0,0,1-.277-.58c5.131-14.62,10.437-29.738,17.585-43.818a34.6,34.6,0,0,1,4.81-7.583.454.454,0,1,1,.675.607,33.816,33.816,0,0,0-4.675,7.387c-7.121,14.029-12.417,29.118-17.537,43.707A.449.449,0,0,1,318.736,296.061Z" transform="translate(-260.406 -184.417)" fill="#d2ebff"/>
        <path id="Path_473" data-name="Path 473" d="M357.034,289.667a.483.483,0,0,1-.169-.034c-8.848-3.552-20.347-8.494-30.821-15.24A233.061,233.061,0,0,1,305.731,259.1a.454.454,0,1,1,.574-.7,231.616,231.616,0,0,0,20.232,15.233c10.41,6.7,21.858,11.621,30.666,15.159a.455.455,0,0,1-.169.877Z" transform="translate(-290.592 -150.273)" fill="#d2ebff"/>
        <path id="Path_474" data-name="Path 474" d="M321.179,295.506a.454.454,0,0,1-.115-.894,7.766,7.766,0,0,0,3.373-2.287,68.667,68.667,0,0,0,6.989-8.865q.6-.85,1.2-1.7c6.362-8.946,13.6-17.409,20.607-25.6a.453.453,0,1,1,.688.59c-6.989,8.17-14.215,16.62-20.553,25.528-.4.567-.8,1.13-1.2,1.7a68.7,68.7,0,0,1-7.084,8.979,8.726,8.726,0,0,1-3.791,2.53A.458.458,0,0,1,321.179,295.506Z" transform="translate(-254.612 -155.696)" fill="#d2ebff"/>
        <path id="Path_475" data-name="Path 475" d="M363,292.843c-14.64,0-38.7-10.582-54.848-19.646a.455.455,0,1,1,.445-.793c16.056,9.01,39.939,19.531,54.4,19.531a.454.454,0,1,1,0,.908Z" transform="translate(-285.007 -116.923)" fill="#d2ebff"/>
        <path id="Path_476" data-name="Path 476" d="M325.064,306.231a3.869,3.869,0,0,1-.395-.02.449.449,0,0,1-.415-.489.461.461,0,0,1,.489-.415c2.189.172,4.051-1.633,5.734-3.626L359.919,266.8a.454.454,0,1,1,.695.584l-29.441,34.879C329.426,304.336,327.483,306.231,325.064,306.231Z" transform="translate(-246.235 -130.467)" fill="#d2ebff"/>
      </g>
    </g>
    <g id="Group_151" data-name="Group 151" transform="translate(333.716 411.528)">
      <path id="Path_477" data-name="Path 477" d="M314.08,287.071l11.142,68.945a20.182,20.182,0,0,0,19.922,16.964h33.945a20.182,20.182,0,0,0,19.922-16.964l11.142-68.945Z" transform="translate(-302.969 -267.237)" fill="#d2ebff"/>
      <path id="Path_478" data-name="Path 478" d="M410.152,287.071H314.08l1.545,9.553h74.062l-9.6,59.392a20.184,20.184,0,0,1-19.922,16.964h18.92a20.179,20.179,0,0,0,19.922-16.964l9.6-59.392h0Z" transform="translate(-302.969 -267.237)" fill="#accfe5"/>
      <path id="Path_479" data-name="Path 479" d="M419.039,281.191H320.825a10.072,10.072,0,0,0-10.039,10.039h0a10.07,10.07,0,0,0,10.039,10.039h98.214a10.067,10.067,0,0,0,10.039-10.039h0A10.069,10.069,0,0,0,419.039,281.191Z" transform="translate(-310.786 -281.191)" fill="#d2ebff"/>
    </g>
  </g>
</svg>
