<svg xmlns="http://www.w3.org/2000/svg" width="154.274" height="141.564" viewBox="0 0 154.274 141.564">
  <g id="Group_135" data-name="Group 135" transform="translate(-322.437 -375.53)">
    <g id="Group_111" data-name="Group 111" transform="translate(364.736 375.53)">
      <circle id="Ellipse_44" data-name="Ellipse 44" cx="9.954" cy="9.954" r="9.954" transform="matrix(1, -0.005, 0.005, 1, 0.881, 5.829)" fill="#92b5f9"/>
      <path id="Path_268" data-name="Path 268" d="M737.61,449.991A9.695,9.695,0,1,1,742.8,437.3,9.706,9.706,0,0,1,737.61,449.991Z" transform="translate(-722.982 -425.312)" fill="#92b5f9"/>
      <circle id="Ellipse_45" data-name="Ellipse 45" cx="7.917" cy="7.917" r="7.917" transform="matrix(0.526, -0.85, 0.85, 0.526, 0, 18.342)" fill="#fff"/>
      <path id="Path_269" data-name="Path 269" d="M754.824,466.054a7.5,7.5,0,1,1,4.02-9.822A7.513,7.513,0,0,1,754.824,466.054Z" transform="translate(-741.041 -443.391)" fill="#fff"/>
      <g id="Group_106" data-name="Group 106" transform="translate(3.254 8.113)">
        <path id="Path_270" data-name="Path 270" d="M744.752,540.48l-1.239.519a.4.4,0,1,0,.309.738l1.239-.519a.4.4,0,1,0-.309-.738Z" transform="translate(-743.267 -530.71)" fill="#92b5f9"/>
        <path id="Path_271" data-name="Path 271" d="M833.485,572.623a.4.4,0,0,0-.214.524l.519,1.239a.4.4,0,1,0,.738-.31l-.519-1.239A.4.4,0,0,0,833.485,572.623Z" transform="translate(-823.5 -559.373)" fill="#92b5f9"/>
        <path id="Path_272" data-name="Path 272" d="M866.866,489.3l-1.239.519a.4.4,0,1,0,.309.739l1.239-.519a.4.4,0,1,0-.309-.738Z" transform="translate(-852.163 -485.07)" fill="#92b5f9"/>
        <path id="Path_273" data-name="Path 273" d="M782.305,450.507a.4.4,0,0,0-.215.524l.519,1.239a.4.4,0,0,0,.739-.309l-.519-1.239A.4.4,0,0,0,782.305,450.507Z" transform="translate(-777.86 -450.476)" fill="#92b5f9"/>
      </g>
      <g id="Group_107" data-name="Group 107" transform="translate(10.466 2.968)">
        <path id="Rectangle_28" data-name="Rectangle 28" d="M1.022,0h0A1.021,1.021,0,0,1,2.044,1.021v.232A1.022,1.022,0,0,1,1.022,2.275h0A1.022,1.022,0,0,1,0,1.253V1.022A1.022,1.022,0,0,1,1.022,0Z" transform="translate(0 2.039) rotate(-85.979)" fill="#92b5f9"/>
      </g>
      <g id="Group_108" data-name="Group 108" transform="translate(0.596 6.588)">
        <path id="Rectangle_29" data-name="Rectangle 29" d="M1.022,0h.232A1.021,1.021,0,0,1,2.275,1.021v0A1.021,1.021,0,0,1,1.254,2.044H1.022A1.022,1.022,0,0,1,0,1.022v0A1.022,1.022,0,0,1,1.022,0Z" transform="matrix(0.649, -0.76, 0.76, 0.649, 0, 1.73)" fill="#92b5f9"/>
      </g>
      <g id="Group_109" data-name="Group 109" transform="translate(2.672)">
        <path id="Rectangle_30" data-name="Rectangle 30" d="M.8,0h1.18a.8.8,0,0,1,.8.8v0a.795.795,0,0,1-.795.795H.795A.795.795,0,0,1,0,.8v0A.8.8,0,0,1,.8,0Z" transform="matrix(0.922, -0.387, 0.387, 0.922, 1.885, 3.81)" fill="#92b5f9"/>
        <path id="Path_274" data-name="Path 274" d="M741.165,381.095a2.49,2.49,0,1,1,1.45-.606l.238.567a3.082,3.082,0,1,0-1.45.607Z" transform="translate(-737.895 -375.53)" fill="#92b5f9"/>
        <path id="Path_275" data-name="Path 275" d="M768.751,419.671q.373-.157.752-.281l-.632-1.509-1.179.494.625,1.49Q768.53,419.764,768.751,419.671Z" transform="translate(-764.466 -413.297)" fill="#92b5f9"/>
      </g>
      <g id="Group_110" data-name="Group 110" transform="translate(10.151 9.758)">
        <path id="Path_276" data-name="Path 276" d="M808.4,514.521a.73.73,0,1,1-.956-.391A.73.73,0,0,1,808.4,514.521Z" transform="translate(-806.992 -508.834)" fill="#92b5f9"/>
        <path id="Path_277" data-name="Path 277" d="M812.1,465.679l-.521,6a.275.275,0,0,1-.547-.048C811.037,471.607,810.99,471.871,812.1,465.679Z" transform="translate(-810.596 -465.679)" fill="#92b5f9"/>
        <path id="Path_278" data-name="Path 278" d="M816.9,521.7l-5.381-2.7a.275.275,0,1,1,.247-.491C811.786,518.515,811.558,518.375,816.9,521.7Z" transform="translate(-810.893 -512.76)" fill="#92b5f9"/>
        <path id="Path_279" data-name="Path 279" d="M811.556,518.246a.3.3,0,1,1-.391-.16A.3.3,0,0,1,811.556,518.246Z" transform="translate(-810.55 -512.392)" fill="#92b5f9"/>
      </g>
    </g>
    <g id="Group_112" data-name="Group 112" transform="translate(446.9 423.496)">
      <path id="Path_280" data-name="Path 280" d="M1475.026,829.524a.293.293,0,0,0-.3-.089,4.186,4.186,0,0,1-1.949-.235l-.513-2.539a4.188,4.188,0,0,1,1.706-.972.292.292,0,0,0,.238-.2l.649-1.93a.292.292,0,0,0-.071-.3,4.188,4.188,0,0,1-.771-1.805l1.943-1.714a4.186,4.186,0,0,1,1.695.991.293.293,0,0,0,.289.108l2-.4a.292.292,0,0,0,.224-.211,4.189,4.189,0,0,1,1.178-1.571l2.455.826a4.191,4.191,0,0,1-.011,1.963.292.292,0,0,0,.051.3l1.347,1.527a.292.292,0,0,0,.3.089,4.187,4.187,0,0,1,1.949.235l.513,2.539a4.189,4.189,0,0,1-1.706.973.292.292,0,0,0-.238.2l-.649,1.93a.292.292,0,0,0,.071.3,4.19,4.19,0,0,1,.772,1.805l-1.943,1.714a4.187,4.187,0,0,1-1.7-.991.292.292,0,0,0-.289-.108l-2,.4a.292.292,0,0,0-.224.211,4.186,4.186,0,0,1-1.178,1.571l-2.455-.826a4.182,4.182,0,0,1,.01-1.963.293.293,0,0,0-.051-.3Zm5.585-.623a2.551,2.551,0,1,0-3.005-2A2.551,2.551,0,0,0,1480.611,828.9Zm.324,1.6a4.187,4.187,0,1,0-4.933-3.276A4.187,4.187,0,0,0,1480.935,830.505Z" transform="translate(-1472.269 -818.657)" fill="#fa7167"/>
      <path id="Path_281" data-name="Path 281" d="M1599.357,912.253a.232.232,0,0,1,.178-.167l1.58-.319a.231.231,0,0,1,.229.085,3.317,3.317,0,0,0,1.342.784l1.538-1.357a3.314,3.314,0,0,0-.611-1.43.232.232,0,0,1-.056-.238l.514-1.528a.231.231,0,0,1,.188-.155,3.316,3.316,0,0,0,1.35-.77l-.406-2.011a3.317,3.317,0,0,0-1.544-.186.231.231,0,0,1-.234-.07l-1.067-1.209a.232.232,0,0,1-.041-.241,3.313,3.313,0,0,0,.009-1.555l-1.944-.654a3.315,3.315,0,0,0-.933,1.244.232.232,0,0,1-.178.167l-1.58.319a.232.232,0,0,1-.229-.085,3.314,3.314,0,0,0-1.342-.785l-1.538,1.357a3.316,3.316,0,0,0,.611,1.43.231.231,0,0,1,.056.238l-.514,1.528a.232.232,0,0,1-.188.155,3.315,3.315,0,0,0-1.35.77l.406,2.011a3.314,3.314,0,0,0,1.543.186.232.232,0,0,1,.234.07l1.067,1.209a.231.231,0,0,1,.04.241,3.314,3.314,0,0,0-.008,1.555l1.944.654A3.315,3.315,0,0,0,1599.357,912.253Zm.544-2.424a2.513,2.513,0,1,1,1.966-2.961A2.513,2.513,0,0,1,1599.9,909.829Z" transform="translate(-1580.108 -892.296)" fill="#fa7167"/>
    </g>
    <path id="Path_282" data-name="Path 282" d="M580.381,660.67l-1.756-.662-1.541,1.071a.258.258,0,0,1-.405-.224l.087-1.875-1.5-1.135a.258.258,0,0,1,.088-.454l1.81-.5.617-1.773a.258.258,0,0,1,.459-.057l1.032,1.568,1.877.039a.258.258,0,0,1,.2.419l-1.172,1.466.543,1.8A.258.258,0,0,1,580.381,660.67Z" transform="translate(-225.375 -249.174)" fill="#92b5f9"/>
    <path id="Path_283" data-name="Path 283" d="M575.356,557.719l-.955-2.563-2.442.73-1.052-2.484-2.42.41-1.091-1.73-.876.552,1.459,2.314,2.293-.389,1.094,2.584,2.4-.718.865,2.323Z" transform="translate(-217.663 -157.442)" fill="#7c9af2"/>
    <path id="Path_284" data-name="Path 284" d="M1513.863,702.35l-2.4-1.314-1.369,2.15-2.42-1.19-1.562,1.893-1.957-.594-.3.991,2.617.8,1.48-1.794,2.518,1.238,1.347-2.115,2.174,1.191Z" transform="translate(-1053.536 -290.271)" fill="#bed1f9"/>
    <path id="Path_285" data-name="Path 285" d="M1003.7,412.514l-1.026,2.535,2.295,1.11-.9,2.542,2.062,1.331-.363,2.013,1.019.184.486-2.692-1.954-1.262.937-2.645-2.257-1.092.93-2.3Z" transform="translate(-606.602 -32.738)" fill="#92b5f9"/>
    <path id="Path_286" data-name="Path 286" d="M1522.594,984.27l-.5-.994-1.136.039-.487-1.154-1.2.414-.608-1.281-1.15.245-.786-1.137.43-.3.588.85,1.213-.259.584,1.231,1.217-.421.537,1.274,1.109-.038.468.921.723-.177.125.508Z" transform="translate(-1065.014 -539.133)" fill="#fa7167"/>
    <path id="Path_287" data-name="Path 287" d="M1362.059,534.633l-.531-1.579,2.447-1.135-.491-2.4,1.692-1.149-.581-.857-2.263,1.536.466,2.279-2.546,1.181.8,2.377Z" transform="translate(-925.477 -135.528)" fill="#fa7167"/>
    <g id="Group_114" data-name="Group 114" transform="translate(441.815 393.117)">
      <path id="Path_288" data-name="Path 288" d="M1439.661,540.348c2.7,4.123-.971,9.845-5.776,8.994a3.639,3.639,0,0,0-2.535.522l-2.657,1.638a1.533,1.533,0,0,1-2.113-.45l-1.022-1.562a1.739,1.739,0,0,1,.349-2.247c2.4-2.058,3.425-2.641,3.747-4.367C1430.6,537.829,1436.963,536.224,1439.661,540.348Z" transform="translate(-1425.292 -538.002)" fill="#bed1f9"/>
      <g id="Group_113" data-name="Group 113" transform="translate(3.021 2.202)">
        <path id="Path_289" data-name="Path 289" d="M1458.215,560.755a5.122,5.122,0,0,1-.125-.726c-.123-1.442.991-1.94,1.578-1.568a1.062,1.062,0,0,1,.312,1.313,3.5,3.5,0,0,1-1.042,1.182,6.964,6.964,0,0,0,1.069,2.2c1.314-.792,2.253-.359,2.313.357a1.168,1.168,0,0,1-.7,1.128c-.266.116-.954.275-1.768-.626-2.218,1.564-5.112,3.875-5.121,3.882l-.367-.511c.009-.007,2.887-2.3,5.1-3.865a7.552,7.552,0,0,1-1.057-2.09c-2.528,2.206-4.755,3.95-4.833,4.014l-.366-.512C1453.365,564.8,1455.523,563.116,1458.215,560.755Zm1.066-1.756c-.2-.074-.716.141-.507,1.265C1459.359,559.751,1459.538,559.526,1459.281,559Zm1.131,4.646c.323.336.812.639,1.14.276C1461.973,563.456,1461.371,563.107,1460.412,563.645Z" transform="translate(-1453.203 -558.342)" fill="#fff"/>
      </g>
      <path id="Path_290" data-name="Path 290" d="M1431.418,608.652c-.022.013-.046.024-.068.038l-2.657,1.638a1.533,1.533,0,0,1-2.113-.45l-1.022-1.562a1.739,1.739,0,0,1,.349-2.247c1.069-.915,1.864-1.539,2.446-2.1Z" transform="translate(-1425.292 -596.828)" fill="#92b5f9"/>
    </g>
    <g id="Group_118" data-name="Group 118" transform="translate(322.437 444.622)">
      <g id="Group_117" data-name="Group 117" transform="translate(0 0)">
        <g id="Group_115" data-name="Group 115" transform="translate(3.536 16.191)">
          <path id="Path_291" data-name="Path 291" d="M357.808,1184.929s-.086-.422-.1-.565c-.021-.167-.045-.673-.045-.673a7.907,7.907,0,0,1,.13-1.755c.131.01.3.314.338.422s.093.233.132.341a.225.225,0,0,0,.29.133c.139-.038.081-.506.028-.663a18.306,18.306,0,0,0-.931-1.848c-.081-.157.482-3.219.591-4.283h0c.231-1.737.556-3.511.581-3.694l3.093-6.836-2.065-2.108s-3.539,7.539-3.673,7.936c-.064.189-.287,4.256-.286,4.256.016,2.009.035,3.78.029,4.12,0,0-.292,1.013-.515,1.646a5.811,5.811,0,0,0-.21,1.5,4.33,4.33,0,0,0-.055,1.469c.093.691.324-.01.324-.01s.059-1.314.163-1.292c.08.016,0,.733.1,1.5.024.2.049.391.073.569.064.467.371.559.383.058a4.667,4.667,0,0,0-.026-.68,3.882,3.882,0,0,1,.014-.639,5.12,5.12,0,0,1,.018-.659c.021.011.076-.065.108.143.039.25,0,.8.089,1.164.049.206.124.643.124.643a4.43,4.43,0,0,0,.243.692c.23-.01.229-.549.126-.819a3.14,3.14,0,0,0-.069-.664s.022-.969.16-.969c.113,0,.511,2.324.741,2.3C357.9,1185.634,357.808,1184.929,357.808,1184.929Z" transform="translate(-355.099 -1163.401)" fill="#fb9390"/>
        </g>
        <path id="Path_292" data-name="Path 292" d="M377.828,1139.745a14.669,14.669,0,0,1-1.965-.475c-.908-.338-1.505-.634-1.505-.634a41.987,41.987,0,0,1,2.241-6.856c.514-1.071,1.034-1.587,1.759-1.711a3.944,3.944,0,0,1,1.468,3.422C379.811,1134.058,377.828,1139.745,377.828,1139.745Z" transform="translate(-368.738 -1117.485)" fill="#e8605d"/>
        <g id="Group_116" data-name="Group 116">
          <path id="Path_293" data-name="Path 293" d="M442.876,1351.9l1.664,15.306a22.943,22.943,0,0,0-.715,4.156c.1.919,1.808,12.982,1.808,12.982l-.072.677,0,2h6.348a28.383,28.383,0,0,1-3.232-1.849,1.343,1.343,0,0,1-.539-.958c-.5-3.718.492-16.12.492-16.12l.784-16.143Z" transform="translate(-429.839 -1315.306)" fill="#fb9390"/>
          <path id="Path_294" data-name="Path 294" d="M357.276,1381.644c-.358.094-.91,13.254-1.207,13.837-1.882,3.7-2.33,14.94-2.33,14.94l-.547,1.6-.586,1.963a4.8,4.8,0,0,0,2.865-.046l-.109-1.935-.1-1.77,4.749-14.006,2.6-14.286Z" transform="translate(-349.34 -1341.83)" fill="#fb9390"/>
          <path id="Path_295" data-name="Path 295" d="M406.235,1111.583c-.766-1.078-3.927-4.2-4.278-4.194-1.024.018-4.383.02-5.04.363l0,.735a39.577,39.577,0,0,0,1.264,9.744,26.519,26.519,0,0,1,1.055,5.437l.016.016a4.559,4.559,0,0,0,6.788-.336h0a40.4,40.4,0,0,1,.266-4.508C406.739,1115.471,408.138,1114.26,406.235,1111.583Z" transform="translate(-388.855 -1097.261)" fill="#fa7167"/>
          <path id="Path_296" data-name="Path 296" d="M431.961,1069.992a17.95,17.95,0,0,1-.1,3.024c-.191.832-.447.894,1.2,1.147.645.1,1.268.248,1.268.248s-.169-1.221-.194-1.736c-.042-.849.19-3.47.19-3.47Z" transform="translate(-419.889 -1063.211)" fill="#fb9390"/>
          <path id="Path_297" data-name="Path 297" d="M436.108,1071.083a2.884,2.884,0,0,0,.945.345c.056-1.035.161-2.223.161-2.223l-2.248.751A2.991,2.991,0,0,0,436.108,1071.083Z" transform="translate(-422.784 -1063.211)" fill="#ef7f7f"/>
          <path id="Path_298" data-name="Path 298" d="M423.937,1019.079a2.873,2.873,0,0,0-1.457,1.365c-.518,1.034-.712,3.939,1.331,5.076a2.573,2.573,0,0,0,2.726.175c.56-.5.492-1.626.436-2.559C426.861,1021.288,426.455,1018.492,423.937,1019.079Z" transform="translate(-411.343 -1018.44)" fill="#fb9390"/>
          <path id="Path_299" data-name="Path 299" d="M415.41,1047.443c.116.485-.039.953-.346,1.046s-.649-.226-.765-.711.039-.953.346-1.046S415.294,1046.958,415.41,1047.443Z" transform="translate(-404.321 -1043.156)" fill="#f7a491"/>
          <path id="Path_300" data-name="Path 300" d="M355.227,1662.051a3.04,3.04,0,0,1-2.17.025l-.6,1.971s1.893.561,2.878,0Z" transform="translate(-349.206 -1591.885)" fill="#fa7167"/>
          <path id="Path_301" data-name="Path 301" d="M385.672,1453.85s0,0,0,0Z" transform="translate(-378.827 -1406.22)" fill="#f47458"/>
          <path id="Path_302" data-name="Path 302" d="M466.435,1660.345h6.6c.244-.023.3-.228.219-.355a7.892,7.892,0,0,0-1.809-.867,10.351,10.351,0,0,1-4.943-1.277A7.843,7.843,0,0,0,466.435,1660.345Z" transform="translate(-450.781 -1588.135)" fill="#fa7167"/>
          <path id="Path_303" data-name="Path 303" d="M466.313,1171.458c.128-.178.556-1.047.556-1.047a8.972,8.972,0,0,0,.352-1.47,1.658,1.658,0,0,0-.454.673c-.132.275-.277.757-.414,1-.24.418-.509.593-.443.431.049-.118.213-.214.358-.465.353-.61.664-1.606.529-1.586a9.1,9.1,0,0,0-.838,1.239,3.9,3.9,0,0,1-.926.71,1.262,1.262,0,0,1,.06-.327c.037-.116.561-.812.356-.9s-1.453,1.418-1.453,1.418l-.513.873-.045.033h0s-6.224,2.44-6.433,2.374c-.49-.155-2.162-5-2.162-5l-3.482.628c-.05-.027,3.661,7.217,4.353,7.571.608.312,7.077-3.059,8.293-3.78a5.23,5.23,0,0,0,2.6-1.8c.146-.211.707-1.127.707-1.127a5.994,5.994,0,0,0,.029-1.281c-.307-.038-.392,1.159-.392,1.159s-.415.565-.487.639C466.281,1171.6,466.313,1171.458,466.313,1171.458Z" transform="translate(-437.403 -1152.151)" fill="#fb9390"/>
          <path id="Path_304" data-name="Path 304" d="M430.11,1118.016c-.475,2.014,2.06,6.505,2.06,6.505s3.611-1.754,4.246-2.51c0,0-2.491-4.111-2.645-4.379-.334-.58-1.5-1.778-2.292-1.558C430.976,1116.214,430.11,1118.016,430.11,1118.016Z" transform="translate(-418.402 -1104.982)" fill="#e8605d"/>
          <path id="Path_305" data-name="Path 305" d="M334.719,1021.893c.27-1.848,3.335-5.614,2.151-7.187-.958-1.273-2.628-.892-3.692-.526-4.826,1.66-4.548,7.726-6.071,8.675-2.762,1.72-4.46,2.791-4.66,6.666-.236,4.6,3.667,6.943,8.36,5.818,2.524-.6,3.193-1.43,4.2-3.813.456-1.074,1.376-4.425,1.125-6.063C335.911,1024,334.5,1023.382,334.719,1021.893Z" transform="translate(-322.437 -1013.827)" fill="#0b0754"/>
          <path id="Path_306" data-name="Path 306" d="M445.537,1048.891c0,.547-.2.991-.444.991s-.444-.444-.444-.991.2-.991.444-.991S445.537,1048.344,445.537,1048.891Z" transform="translate(-431.421 -1044.212)" fill="#fb9390"/>
          <path id="Path_307" data-name="Path 307" d="M398.955,1275.284l.226-9.08a17.971,17.971,0,0,0-1.487-7.447l-1.716-3.938a10.357,10.357,0,0,1-2.078.505,20.236,20.236,0,0,1-4.726-.185,1.268,1.268,0,0,1-.022.16c-.286,1.337-1.881,4.319-2.553,8.393a85.755,85.755,0,0,0-.953,12.086C392.939,1276.11,394.677,1276.373,398.955,1275.284Z" transform="translate(-378.788 -1228.733)" fill="#92b5f9"/>
        </g>
      </g>
    </g>
    <g id="Group_123" data-name="Group 123" transform="translate(374.64 401.329)">
      <g id="Group_120" data-name="Group 120" transform="translate(56.644 44.387)">
        <path id="Path_308" data-name="Path 308" d="M1330.163,1023.933l5.493,5.493s10.46,4.09,11.629,6.6-1.052,2.4-3.506,2.045-9.408-4.675-9.408-4.675l-6.369-7.363Z" transform="translate(-1328.001 -1023.933)" fill="#4951ec"/>
        <path id="Path_309" data-name="Path 309" d="M1444.875,1121.527l-1.359-.482-2.63,1.227a5.943,5.943,0,0,0-2.016,3.2c-.657,2.279,0,15.909,1.1,18.1S1444.875,1121.527,1444.875,1121.527Z" transform="translate(-1426.636 -1110.533)" fill="#bed1f9"/>
        <path id="Path_310" data-name="Path 310" d="M1576.187,1608.945s.966.622,1.045.908.788,3.383.523,3.742-1.236.185-.859.447a6.748,6.748,0,0,0,3.295.032c.343-.093.186-2.988.236-3.429.073-.641.517-2.094.247-2.473a5.655,5.655,0,0,0-1.563-.774,5.606,5.606,0,0,1-1.5-1.064Z" transform="translate(-1549.322 -1543.292)" fill="#fb9390"/>
        <path id="Path_311" data-name="Path 311" d="M1582.537,1615.941s-.57,5.494-1.238,5.9c-.177.108-1.116.188-1.2.637,0,.011-.022.46.263.471l3.561-.011s.037-2.7.015-3.76a15.6,15.6,0,0,0,.331-2.9A6.139,6.139,0,0,0,1582.537,1615.941Z" transform="translate(-1552.808 -1551.859)" fill="#0b0754"/>
        <path id="Path_312" data-name="Path 312" d="M1704.936,1608.945s.966.622,1.045.908.788,3.383.522,3.742-1.236.185-.859.447a6.747,6.747,0,0,0,3.294.032c.342-.093.186-2.988.236-3.429.073-.641.517-2.094.248-2.473a5.652,5.652,0,0,0-1.562-.774,5.609,5.609,0,0,1-1.5-1.064Z" transform="translate(-1664.135 -1543.292)" fill="#fb9390"/>
        <path id="Path_313" data-name="Path 313" d="M1485.263,1300.577s3.256,6.465,3.923,8.2l4.962,12.589,10.943,12.873s-.8,2.068-2.012,2.623c0,0-13.194-10.654-14.279-12.332-1.654-2.558-9.187-18.228-9.187-18.228l-1.4-3.014Z" transform="translate(-1461.952 -1270.632)" fill="#e8605d"/>
        <path id="Path_314" data-name="Path 314" d="M1454.947,1283.893l.052,5.513s-2.355,18.009-1.9,19.078c1.113,2.61,13.352,11.453,13.352,11.453l1.665-2.863-8.794-9.817,3.331-9.554c.932-2.219,2.914-6.508,2.864-8.915-.043-2.062-4.131-6.845-4.131-6.845Z" transform="translate(-1439.506 -1254.017)" fill="#fa7167"/>
        <path id="Path_315" data-name="Path 315" d="M1451.885,1147.615c3.243-.736,5.867-1.882,6.136-2.787.122-.409-1.687-4.522-3.017-10.015-.434-1.793-.356-3.478-1.052-9.758-.148-1.332-.7-4.125-2.762-4.845a3.1,3.1,0,0,0-1.129-.22,10.752,10.752,0,0,0-3.818.683c-.294.4-1.392,2.586-1.684,8.546-.128,2.6-.647,10.957-.541,12.315q.024.3.06.585A6.656,6.656,0,0,0,1451.885,1147.615Z" transform="translate(-1431.447 -1109.59)" fill="#4951ec"/>
        <path id="Path_316" data-name="Path 316" d="M1463.861,1099.992s.005,0,.009,0c1.322-.146,4.647-4.5,4.647-4.5l-.007-.012-2.052-3.249s-3.022.55-2.431,1.47a10.942,10.942,0,0,1,.922,3.127c-.01.025-.023.056-.041.092A10.968,10.968,0,0,0,1463.861,1099.992Z" transform="translate(-1449.155 -1084.835)" fill="#fb9390"/>
        <path id="Path_317" data-name="Path 317" d="M1464.772,1093.7c-.591-.92,2.431-1.47,2.431-1.47l.171.271a1.758,1.758,0,0,1-.085.617,3.948,3.948,0,0,1-1.926,2.123A5.851,5.851,0,0,0,1464.772,1093.7Z" transform="translate(-1449.899 -1084.837)" fill="#ef7f7f"/>
        <g id="Group_119" data-name="Group 119" transform="translate(11.291 0.471)">
          <path id="Path_318" data-name="Path 318" d="M1439.281,1042.037c.065-.062,2.357,3.707,1.807,5.26s-2.4,2.79-3.5,2.236c-1.216-.613-3.055-4.936-1.947-6.77S1439.281,1042.037,1439.281,1042.037Z" transform="translate(-1434.975 -1040.252)" fill="#fb9390"/>
          <path id="Path_319" data-name="Path 319" d="M1433.3,1028.375a7.694,7.694,0,0,1,5.115,1.063,3.529,3.529,0,0,1,.972,4.617,2.773,2.773,0,0,0-.3,2.364s-2.344-.147-2.819-1.743c-.2-.669.049-1.123-.4-1.5a7.506,7.506,0,0,1-.983-1.817s-1.512-.8-2.088-.142C1432.6,1031.442,1431.572,1028.746,1433.3,1028.375Z" transform="translate(-1432.315 -1028.282)" fill="#0b0754"/>
          <path id="Path_320" data-name="Path 320" d="M1461.981,1066.856c.2.492.6.795.89.676s.352-.615.147-1.107-.6-.8-.89-.676S1461.776,1066.364,1461.981,1066.856Z" transform="translate(-1458.664 -1061.67)" fill="#fb9390"/>
        </g>
        <path id="Path_321" data-name="Path 321" d="M1711.3,1616s-.586,5.488-1.253,5.894c-.177.108-1.116.188-1.2.637,0,.011-.029.475.263.467l3.557-.007s.041-2.7.018-3.76a15.587,15.587,0,0,0,.331-2.9A6.019,6.019,0,0,0,1711.3,1616Z" transform="translate(-1667.617 -1551.912)" fill="#0b0754"/>
      </g>
      <g id="Group_122" data-name="Group 122" transform="translate(0)">
        <g id="Group_121" data-name="Group 121">
          <path id="Path_322" data-name="Path 322" d="M826.374,696.985c-2.827-5.914-3.6-14.74-.522-21.74,5.194-11.816,19.487-16.638,18.435-30.03a10.844,10.844,0,0,0-3.976-7.831c-5.818-4.594-15.177-2.162-21.858,1.045a41.86,41.86,0,0,0-11.887,8.721L804.707,623.5c8.019-5.69,17.722-8.666,27.407-9.427,19.846-1.56,35.171,5.884,36.731,25.735,1.423,18.1-10.812,26.125-19.02,35.176-4.556,5.024-5.585,8.894-5.233,13.376a14.251,14.251,0,0,0,2.448,7Zm14.25,32.343c-19.291,1.516-21.524-24.4-2.038-25.931C857.781,701.889,859.841,727.818,840.624,729.328Z" transform="translate(-804.707 -613.87)" fill="#fa7167"/>
        </g>
      </g>
      <path id="Path_323" data-name="Path 323" d="M1278.633,1000.038a4.156,4.156,0,0,0-.149-1.312,2.408,2.408,0,0,0-.472-.965,2.2,2.2,0,0,0-.437-.383.219.219,0,0,0-.349.2c.044.122.272.541.316.662s.064.42-.037.519a12.628,12.628,0,0,1-1.8-1.894,6.327,6.327,0,0,1-.274-.732s-.14-.434-.31-.323c-.111.072-.234.429.087,1.133.28.615.667,1.106.623,1.142-.115.095-.809-.736-.809-.736a3.645,3.645,0,0,0-.406-.627c-.1-.308-.292-.69-.489-.541a3.978,3.978,0,0,0,.094.683s.242.434.345.647c.182.376.6.833.738,1.078.118.2,0,.157-.006.181a5.4,5.4,0,0,1-.459-.544,4.521,4.521,0,0,1-.457-.549,5.438,5.438,0,0,0-.453-.612c-.359-.429-.551-.137-.277.315.1.172.219.359.336.548.455.734,1.017,1.308.962,1.377-.071.09-1.036-1.016-1.036-1.016s-.681-.454-.276.214a6.847,6.847,0,0,0,1,1.291,6.485,6.485,0,0,0,1.215,1.2c.628.4,1.646,1,1.646,1,.117.141.415.6.827,1.248l1.522-1.831A11.89,11.89,0,0,1,1278.633,1000.038Z" transform="translate(-1222.768 -954.455)" fill="#fb9390"/>
      <path id="Path_324" data-name="Path 324" d="M1309.718,1043.666l2.1-1.841,7.224,7.129s11.183.98,11.212.989l.448.14c4.057,1.4,2.387,4.712,1.605,5.224-1.821,1.193-11.932.478-15.172-1.532C1314.472,1052.12,1309.718,1043.666,1309.718,1043.666Z" transform="translate(-1255.053 -995.501)" fill="#7c9af2"/>
    </g>
    <g id="Group_126" data-name="Group 126" transform="translate(351.198 433.668)">
      <path id="Path_325" data-name="Path 325" d="M614.243,1142.4a2.419,2.419,0,0,0,.229.594,22.459,22.459,0,0,0,2.194,3.115l1.186-2.852s-.193-.9-.529-2.176A6.629,6.629,0,0,0,614.243,1142.4Z" transform="translate(-611.417 -1116.354)" fill="#fb9390"/>
      <path id="Path_326" data-name="Path 326" d="M598.223,1048.264s-6.615,3.04-6.829,2.982a19.579,19.579,0,0,1-2.741-8.965c-.013-2,1.932-4.4,4.1-3.927,1.092.239,1.076.564,2.692,3.07A29.976,29.976,0,0,1,598.223,1048.264Z" transform="translate(-588.597 -1024.69)" fill="#4951ec"/>
      <path id="Path_327" data-name="Path 327" d="M725.585,1633.978s-.157,2.773-.158,2.779c-.058.352-.285,1.222-.285,1.542,0,1.2,5.349-1.021,4.15-1.553-.108-.048-.677-.413-.713-.822-.055-.63-.194-1.906-.194-1.906Z" transform="translate(-710.312 -1555.896)" fill="#fb9390"/>
      <path id="Path_328" data-name="Path 328" d="M727.719,1659.027a19.3,19.3,0,0,1-1.9.46c-.643.092-1.491-.682-1.946-.473-.5.23-.481,2.3-.481,2.3s6.735.59,8.629-.02C732.771,1661.054,730.286,1659.883,727.719,1659.027Z" transform="translate(-708.751 -1578.189)" fill="#0b0754"/>
      <path id="Path_329" data-name="Path 329" d="M624.494,1633.978s-.157,2.773-.158,2.779c-.058.352-.285,1.222-.285,1.542,0,1.2,5.349-1.021,4.15-1.553-.109-.048-.845-.685-.881-1.095-.055-.63-.026-1.634-.026-1.634Z" transform="translate(-620.164 -1555.896)" fill="#fb9390"/>
      <path id="Path_330" data-name="Path 330" d="M626.3,1659.027a19.313,19.313,0,0,1-1.9.46c-.643.092-1.491-.682-1.946-.473-.5.23-.521,2.3-.521,2.3s6.765.688,8.668-.02C631.342,1661.02,628.869,1659.883,626.3,1659.027Z" transform="translate(-618.277 -1578.189)" fill="#0b0754"/>
      <g id="Group_124" data-name="Group 124" transform="translate(5.965 5.814)">
        <path id="Path_331" data-name="Path 331" d="M643.245,988.108l4.711-7.043c.02-.062.063-.188.128-.381.237-.7.731-2.153,1.161-3.6l0-.015c.135-.506.422-1.388.7-2.241.308-.949.69-2.126.7-2.327-.012-.034-.034-.1-.063-.178a17.134,17.134,0,0,1-.489-2.114c-.053-.316-.105-1.083.246-1.083.553,0,.289.766.544,1.244a12.758,12.758,0,0,0,.383-1.6l.092-1.5c.018-.113-.095-.939.293-.939h.019c.348.027.34.905.485,2.391.046-.171.091-.377.126-.567a5.786,5.786,0,0,1,.118-.784c-.07-.414-.029-1.067.384-1.005.207.031.19.942.19.942,0,.125-.014,1.088-.008,1.279.043-.323.208-1.7.532-1.7.269,0,.29.371.285.665,0,.174-.172,1.667-.181,1.841.126-.227.277-1.543.4-1.543.524,0,.334,1.871.142,2.359a2.248,2.248,0,0,0-.06.261,4.808,4.808,0,0,1-.449,1.392c-.329.6-.783,1.556-.852,1.7-.051.3-.208,1.371-.407,2.721-.085.577-.178,1.211-.275,1.867H652.1c-.018.142-.116.593-.489,2.287a21.189,21.189,0,0,1-.586,2.46c-.221.418-5.3,7.78-5.517,8.094l-.128.185Z" transform="translate(-643.245 -966.338)" fill="#fb9390"/>
        <path id="Path_332" data-name="Path 332" d="M715.439,1006.756s-.382-1.044-1.063-1.045a.741.741,0,0,1,.706.129A1.5,1.5,0,0,1,715.439,1006.756Z" transform="translate(-706.676 -1001.414)" fill="#ef7f7f"/>
      </g>
      <g id="Group_125" data-name="Group 125" transform="translate(0 0)">
        <path id="Path_333" data-name="Path 333" d="M627.732,995.087l-.606,4.094s2.311,1.98,3.658,1.562c1.13-.35.355-1.928.355-1.928a10.887,10.887,0,0,1-.417-3.331C630.906,994.339,627.732,995.087,627.732,995.087Z" transform="translate(-622.906 -985.947)" fill="#fb9390"/>
        <path id="Path_334" data-name="Path 334" d="M632.2,996.327a8.986,8.986,0,0,0,2.616.787,5.793,5.793,0,0,1-.062-1.626c.085-.529-.545-.654-1.248-.635-.921.084-1.741.238-1.741.238l-.117.787A1.921,1.921,0,0,0,632.2,996.327Z" transform="translate(-626.941 -985.951)" fill="#ef7f7f"/>
        <path id="Path_335" data-name="Path 335" d="M605.735,935.316c-.1,0,.913,4.573,2.475,5.36s3.89.376,4.326-.855c.483-1.362-1.279-6.027-3.475-6.62S605.735,935.316,605.735,935.316Z" transform="translate(-603.824 -930.898)" fill="#fb9390"/>
        <path id="Path_336" data-name="Path 336" d="M591.855,912.845a5.164,5.164,0,0,0-2.012,2.372,3.374,3.374,0,0,0-1.634,2.665,3.747,3.747,0,0,0,2.644,4.254,2.54,2.54,0,0,1,1.842,1.605l.156-1.2a4.826,4.826,0,0,0-.878-1.564c-.527-.522.25-1.282.318-1.9.052-.478-.277-1.4-.206-2.189a5.249,5.249,0,0,1,1.738-1.766C595.3,914.526,593.455,911.86,591.855,912.845Z" transform="translate(-588.138 -912.629)" fill="#0b0754"/>
        <path id="Path_337" data-name="Path 337" d="M618.53,973.253c.2.528.121,1.052-.186,1.171s-.721-.213-.925-.742-.121-1.052.186-1.171S618.326,972.725,618.53,973.253Z" transform="translate(-614.15 -966.008)" fill="#fb9390"/>
      </g>
      <path id="Path_338" data-name="Path 338" d="M682.334,1132.588l9.088-1.581s-1.034-2.778-1.4-2.778-6.871,3.029-6.871,3.029l-.517,1.108Z" transform="translate(-672.138 -1104.891)" fill="#fb9390"/>
      <path id="Path_339" data-name="Path 339" d="M626.575,1226.283a34.02,34.02,0,0,0-.537,8.224c.369,3.547.4,16.145.4,16.145l-1.41,20.158,3.345.078s3.966-20.148,3.893-19.631,1.33-14.186,1.33-14.186l-4.729-11.231Z" transform="translate(-621.034 -1191.937)" fill="#0b0754"/>
      <path id="Path_340" data-name="Path 340" d="M645.678,1215.1s-.591,4.212.148,6.059,6.337,19.971,6.411,21.449,1.936,17.811,1.936,17.811l3.89-.117.841-18.159-1.762-22.823-1.711-5.771Z" transform="translate(-639.25 -1180.979)" fill="#0b0754"/>
      <path id="Path_341" data-name="Path 341" d="M627.126,1023.966a3.349,3.349,0,0,0,1.854.594,5.977,5.977,0,0,0,2.159-.959l-.176-.636s-2.314-.36-2.373-.321S627.126,1023.966,627.126,1023.966Z" transform="translate(-622.906 -1010.733)" fill="#fb9390"/>
      <path id="Path_342" data-name="Path 342" d="M721.567,1098.688s3.437,3.462,4.989,2.871,2.194-2.611-1.592-5.567C721.576,1093.345,721.567,1098.688,721.567,1098.688Z" transform="translate(-707.124 -1075.487)" fill="#fb9390"/>
      <path id="Path_343" data-name="Path 343" d="M613.246,1045.564c-.511-2.965-4.211-12.191-4.507-13.89-.144-.827-2.14-.845-4.041-.737-2.008.114-4,.385-4,.385a5.883,5.883,0,0,0-2.56,1.094c-.782.782-.99,2.946.134,7.053.888,3.242,1.988,5.022,2.533,7.383.11.792.2,1.573.33,2.486.2,3.531,0,8.2,0,8.2s9.679,2.143,13.3-1.108C614.429,1056.426,613.77,1048.6,613.246,1045.564Z" transform="translate(-596.474 -1018.089)" fill="#7c9af2"/>
      <path id="Path_344" data-name="Path 344" d="M676.668,1040.165s-3.8,3.346-4.02,3.346c-.143,0-5.42-4.143-6.638-7.547-.673-1.882.739-3.987,2.352-3.98,1.118,0,1.615.312,3.832,2.307A29.969,29.969,0,0,1,676.668,1040.165Z" transform="translate(-657.428 -1019.065)" fill="#4951ec"/>
    </g>
    <g id="Group_127" data-name="Group 127" transform="translate(411.796 376.858)">
      <path id="Path_345" data-name="Path 345" d="M1164.629,399.379l-8.235,5.571a1.828,1.828,0,0,1-2.538-.49l-5.571-8.235a1.828,1.828,0,0,1,.49-2.538l8.235-5.571a1.827,1.827,0,0,1,2.538.49l5.571,8.235A1.828,1.828,0,0,1,1164.629,399.379Z" transform="translate(-1147.971 -387.803)" fill="#fa7167"/>
      <path id="Path_346" data-name="Path 346" d="M1193.43,423.92a4.659,4.659,0,1,1-6.47-1.248A4.659,4.659,0,0,1,1193.43,423.92Z" transform="translate(-1180.913 -418.184)" fill="#fff"/>
      <path id="Path_347" data-name="Path 347" d="M1213.785,447.236l1.911,2.084a.375.375,0,1,1-.553.507.393.393,0,0,1-.057-.081Z" transform="translate(-1206.661 -440.803)" fill="#fa7167"/>
      <path id="Path_348" data-name="Path 348" d="M1225.864,453.34l2.883-1.614-2.515,2.143a.324.324,0,1,1-.42-.493A.346.346,0,0,1,1225.864,453.34Z" transform="translate(-1217.285 -444.807)" fill="#fa7167"/>
    </g>
    <rect id="Rectangle_31" data-name="Rectangle 31" width="27.563" height="14.338" rx="7.169" transform="translate(325.162 419.201)" fill="#bed1f9"/>
    <path id="Path_349" data-name="Path 349" d="M572.032,834.085l6.789,3.043-4.545-6.362Z" transform="translate(-222.578 -405.959)" fill="#bed1f9"/>
    <g id="Group_128" data-name="Group 128" transform="translate(331.962 424.849)">
      <path id="Path_350" data-name="Path 350" d="M412.812,832.217a1.2,1.2,0,1,1-1.189-1.057A1.129,1.129,0,0,1,412.812,832.217Z" transform="translate(-410.434 -831.16)" fill="#fff"/>
      <path id="Path_351" data-name="Path 351" d="M463.917,832.217a1.2,1.2,0,1,1-1.189-1.057A1.129,1.129,0,0,1,463.917,832.217Z" transform="translate(-456.007 -831.16)" fill="#fff"/>
      <path id="Path_352" data-name="Path 352" d="M515.023,832.217a1.2,1.2,0,1,1-1.189-1.057A1.129,1.129,0,0,1,515.023,832.217Z" transform="translate(-501.581 -831.16)" fill="#fff"/>
    </g>
    <g id="Group_129" data-name="Group 129" transform="translate(343.319 409.046)">
      <path id="Path_353" data-name="Path 353" d="M518.178,687.822l-2.481.885-.345-.967,1.407-.5-.784-1.632.925-.445Z" transform="translate(-515.352 -685.162)" fill="#fa7167"/>
    </g>
    <g id="Group_130" data-name="Group 130" transform="translate(448.954 387.176)">
      <path id="Path_354" data-name="Path 354" d="M1491.268,483.628l.553,1.763c.144.46.251,1.206.7,1.467a.26.26,0,0,0,.353-.092c.222-.49-.1-1.116-.251-1.6l-.563-1.76c-.16-.5-.951-.288-.792.218Z" transform="translate(-1491.247 -483.124)" fill="#92b5f9"/>
    </g>
    <g id="Group_131" data-name="Group 131" transform="translate(454.278 386.76)">
      <path id="Path_355" data-name="Path 355" d="M1541.345,479.563c-.952,3.249-.961,3.151-.891,3.482a.352.352,0,0,0,.583.154c.222-.229.167-.162,1.086-3.422a.4.4,0,0,0-.779-.215Z" transform="translate(-1540.428 -479.279)" fill="#92b5f9"/>
    </g>
    <g id="Group_132" data-name="Group 132" transform="translate(458.207 392.116)">
      <path id="Path_356" data-name="Path 356" d="M1577.347,530.917l1.682-.807a3.8,3.8,0,0,0,1.484-.883c.15-.2-.056-.462-.269-.468a3.989,3.989,0,0,0-1.629.643l-1.678.814c-.47.228-.059.925.41.7Z" transform="translate(-1576.73 -528.759)" fill="#92b5f9"/>
    </g>
    <g id="Group_133" data-name="Group 133" transform="translate(456.9 403.357)">
      <path id="Path_357" data-name="Path 357" d="M1564.743,633.284a26.872,26.872,0,0,0,1.8,2.18c.351.365.861-.171.547-.547-.6-.725-1.225-1.432-1.808-2.175-.305-.389-.84.157-.542.542Z" transform="translate(-1564.656 -632.608)" fill="#92b5f9"/>
    </g>
    <g id="Group_134" data-name="Group 134" transform="translate(458.907 399.496)">
      <path id="Path_358" data-name="Path 358" d="M1583.392,597.681c.519.228,1.045.439,1.573.646a3.448,3.448,0,0,0,1.576.452c.277-.039.309-.409.153-.58-.2-.215-.3-.2-1.446-.64-.517-.2-1.031-.409-1.55-.6-.417-.156-.718.545-.306.726Z" transform="translate(-1583.195 -596.933)" fill="#92b5f9"/>
    </g>
  </g>
</svg>
