<svg xmlns="http://www.w3.org/2000/svg" width="116.725" height="116.725" viewBox="0 0 116.725 116.725">
  <g id="treasure-map" transform="translate(-2 -2)">
    <path id="Path_377" data-name="Path 377" d="M118.725,118.725l-17.509-3.891-25.291,3.891-29.181-3.891-21.4,3.891H2L3.945,83.708,2,60.363,3.945,37.018,2,2,19.509,3.945,23.4,11.727l1.945-7.782L54.526,2,85.653,3.945,118.725,2,116.78,35.072l1.945,44.745Z" fill="#eddbc2"/>
    <path id="Path_378" data-name="Path 378" d="M46.745,92.633l29.181,3.891,25.291-3.891,17.509,3.891V57.615l-1.4-32.132-41.4,20.459L62.308,63.451,35.072,80.96,2.619,84.06,2,96.524H25.345Z" transform="translate(0 22.202)" fill="#b5ccd6"/>
    <path id="Path_379" data-name="Path 379" d="M33,8H69.963V23.563H33Z" transform="translate(29.308 5.673)" fill="#f09d3a"/>
    <path id="Path_380" data-name="Path 380" d="M37.727,16,28,25.727H64.963L74.69,16Z" transform="translate(24.581 13.236)" fill="#223b5a"/>
    <path id="Path_381" data-name="Path 381" d="M52,23.563A7.782,7.782,0,1,0,52,8Z" transform="translate(47.271 5.673)" fill="#f5a947"/>
    <path id="Path_382" data-name="Path 382" d="M28.942,22.637a9.737,9.737,0,0,1,6.7-6.7.379.379,0,0,0,0-.737,9.737,9.737,0,0,1-6.7-6.7.379.379,0,0,0-.737,0,9.737,9.737,0,0,1-6.695,6.7.379.379,0,0,0,0,.737,9.737,9.737,0,0,1,6.695,6.7A.379.379,0,0,0,28.942,22.637Z" transform="translate(18.171 5.88)" fill="#f5a947"/>
    <path id="Path_383" data-name="Path 383" d="M39,61.181l5.836-17.509,7.782,7.782L62.345,32,74.018,63.127H39Z" transform="translate(34.981 28.363)" fill="#e34e4b"/>
    <path id="Path_384" data-name="Path 384" d="M48,52.727,51.891,43l3.891,9.727Z" transform="translate(43.49 38.762)" fill="#223b5a"/>
    <path id="Path_385" data-name="Path 385" d="M8,26.618,13.836,13l5.836,13.618Z" transform="translate(5.673 10.4)" fill="#50b6cf"/>
    <path id="Path_386" data-name="Path 386" d="M14,24.618,19.836,11l5.836,13.618Z" transform="translate(11.345 8.509)" fill="#50b6cf"/>
    <path id="Path_387" data-name="Path 387" d="M12,48.4,31.454,67.854,54.8,46.454,35.345,27Z" transform="translate(9.454 23.636)" fill="#50b6cf"/>
    <circle id="Ellipse_50" data-name="Ellipse 50" cx="5.709" cy="5.709" r="5.709" transform="translate(68.432 31.533)" fill="#f09d3a"/>
    <circle id="Ellipse_51" data-name="Ellipse 51" cx="5.709" cy="5.709" r="5.709" transform="translate(81.926 31.533)" fill="#f09d3a"/>
    <path id="Path_388" data-name="Path 388" d="M56.727,16V31.563L47,41.291V25.727Z" transform="translate(42.544 13.236)" fill="#f5a947"/>
    <path id="Path_389" data-name="Path 389" d="M32,23.836a5.836,5.836,0,0,1,11.673,0Z" transform="translate(28.363 15.127)" fill="#f5a947"/>
    <path id="Path_390" data-name="Path 390" d="M28,21H64.963V36.563H28Z" transform="translate(24.581 17.963)" fill="#f09d3a"/>
    <path id="Path_391" data-name="Path 391" d="M40,23.836a5.836,5.836,0,1,1,11.673,0Z" transform="translate(35.926 15.127)" fill="#f5a947"/>
    <g id="Group_145" data-name="Group 145" transform="translate(12.284 91.49)">
      <path id="Path_392" data-name="Path 392" d="M0,0H3.891V16.507H0Z" transform="translate(0 5.259) rotate(-45)" fill="#223b5a"/>
      <path id="Path_393" data-name="Path 393" d="M0,0H16.507V3.891H0Z" transform="translate(0 14.18) rotate(-45)" fill="#223b5a"/>
      <path id="Path_394" data-name="Path 394" d="M26.363,59.794h-.605V55.9h.615c1.6,0,3.354-.009,5.209-.029l.044,3.891C29.755,59.786,27.989,59.794,26.363,59.794Zm-4.514-.022c-3.647-.034-5.879-.1-5.879-.1l.115-3.889c.011,0,2.211.065,5.8.1ZM35.54,59.7l-.078-3.891c1.877-.037,3.826-.089,5.815-.158l.133,3.889C39.4,59.614,37.436,59.666,35.54,59.7Zm9.785-.318L45.147,55.5c1.923-.088,3.864-.195,5.8-.323L51.2,59.06C49.241,59.188,47.275,59.3,45.325,59.387Zm9.793-.618L54.8,54.891c1.957-.161,3.884-.348,5.755-.563L61,58.194c-1.91.219-3.879.409-5.878.575Zm9.8-1.077-.553-3.851c2.056-.3,3.952-.625,5.634-.978l.8,3.807c-1.763.37-3.742.714-5.881,1.022Zm9.8-1.987-1.079-3.739a20.117,20.117,0,0,0,4.9-1.992l2.054,3.3A23.585,23.585,0,0,1,74.719,55.7Zm9.222-6.387-3.752-1.028A1.107,1.107,0,0,0,80.227,48h3.891A4.986,4.986,0,0,1,83.94,49.317Z" transform="translate(0.924 -48)" fill="#223b5a"/>
    </g>
    <path id="Path_395" data-name="Path 395" d="M16.034,52.7l-2.751-2.751a5.745,5.745,0,0,1,3.62-1.694,2.027,2.027,0,0,0,2.012-2.013,5.867,5.867,0,0,1,5.317-5.315,2.029,2.029,0,0,0,2.013-2.014,5.882,5.882,0,0,1,5.32-5.323,2.05,2.05,0,0,0,2.028-2.027,5.768,5.768,0,0,1,1.7-3.624l2.753,2.751a1.972,1.972,0,0,0-.6,1.427,5.888,5.888,0,0,1-5.324,5.324A2.047,2.047,0,0,0,30.1,39.465a5.867,5.867,0,0,1-5.318,5.316,2.026,2.026,0,0,0-2.011,2.011,5.867,5.867,0,0,1-5.317,5.317,1.954,1.954,0,0,0-1.416.592Z" transform="translate(10.667 24.524)" fill="#3cadc9"/>
    <path id="Path_396" data-name="Path 396" d="M19.376,56.045l-2.751-2.753A5.75,5.75,0,0,1,20.247,51.6a2.027,2.027,0,0,0,2.012-2.013,5.865,5.865,0,0,1,5.317-5.315,1.954,1.954,0,0,0,1.415-.592,1.974,1.974,0,0,0,.6-1.423,5.878,5.878,0,0,1,5.32-5.322,2.048,2.048,0,0,0,2.027-2.027,5.767,5.767,0,0,1,1.7-3.625l2.751,2.753a1.974,1.974,0,0,0-.6,1.426,5.886,5.886,0,0,1-5.324,5.324,2.044,2.044,0,0,0-2.023,2.022,5.869,5.869,0,0,1-5.319,5.316,2.026,2.026,0,0,0-2.01,2.012,5.869,5.869,0,0,1-5.317,5.317,1.952,1.952,0,0,0-1.417.593Z" transform="translate(13.827 27.684)" fill="#3cadc9"/>
    <path id="Path_397" data-name="Path 397" d="M22.72,59.387l-2.751-2.751a5.746,5.746,0,0,1,3.621-1.695A2.027,2.027,0,0,0,25.6,52.929a5.867,5.867,0,0,1,5.316-5.316A2.03,2.03,0,0,0,32.931,45.6a5.88,5.88,0,0,1,5.321-5.322,2.047,2.047,0,0,0,2.026-2.026,5.764,5.764,0,0,1,1.7-3.625l2.751,2.751a1.98,1.98,0,0,0-.6,1.428,5.886,5.886,0,0,1-5.324,5.324,2.042,2.042,0,0,0-2.023,2.021,5.869,5.869,0,0,1-5.318,5.317,2.026,2.026,0,0,0-2.011,2.012,5.865,5.865,0,0,1-5.317,5.316,1.955,1.955,0,0,0-1.417.593Z" transform="translate(16.988 30.845)" fill="#3cadc9"/>
    <path id="Path_398" data-name="Path 398" d="M70.943,61.742c-1.375-.474-2.8-.949-4.25-1.423l1.206-3.7c1.475.482,2.916.962,4.313,1.444ZM63,59.139c-1.822-.574-3.682-1.147-5.564-1.719L58.57,53.7c1.893.576,3.766,1.153,5.6,1.731ZM53.717,56.3l-5.6-1.668L49.23,50.9l5.6,1.67Zm-9.325-2.777c-1.891-.562-3.765-1.123-5.606-1.68l1.128-3.724c1.833.556,3.7,1.114,5.587,1.675ZM35.048,50.7c-1.925-.595-3.8-1.186-5.6-1.773l1.2-3.7c1.783.58,3.637,1.165,5.543,1.754Zm-9.323-3.014c-1.986-.681-3.853-1.356-5.566-2.02l1.41-3.627c1.667.648,3.484,1.3,5.419,1.967Zm-9.252-3.548A31.008,31.008,0,0,1,11,41.15L13.279,38a27.93,27.93,0,0,0,4.778,2.584ZM11.89,36.6,8,36.566c.02-2.369,1.289-4.484,3.774-6.285l2.284,3.15C11.9,34.993,11.893,36.2,11.89,36.6ZM17.1,31.739l-1.577-3.556a42.487,42.487,0,0,1,5.785-2.018l1.043,3.748A38.7,38.7,0,0,0,17.1,31.739Zm8.926-2.729-.825-3.8c1.83-.4,3.8-.761,5.868-1.081l.6,3.845C29.678,28.281,27.78,28.63,26.025,29.01Zm9.443-1.564L35,23.584c3.471-.425,5.856-.576,5.956-.582l.243,3.883C41.171,26.887,38.815,27.036,35.468,27.447Z" transform="translate(5.672 19.856)" fill="#223b5a"/>
    <path id="Path_399" data-name="Path 399" d="M10,20h3.891v5.836H10Z" transform="translate(7.563 17.018)" fill="#223b5a"/>
    <path id="Path_400" data-name="Path 400" d="M16,18h3.891v5.836H16Z" transform="translate(13.236 15.127)" fill="#223b5a"/>
  </g>
</svg>
