<svg xmlns="http://www.w3.org/2000/svg" width="273.147" height="288.346" viewBox="0 0 273.147 288.346">
  <path id="Path_275" data-name="Path 275" d="M26.356,278.148l4.2-5H8a8.012,8.012,0,0,1-8-8V168.05a8.012,8.012,0,0,1,.212-1.828L32.755,27.514a8,8,0,0,1,7.79-6.174H75.222V8a8.012,8.012,0,0,1,8-8h106.7a8.012,8.012,0,0,1,8,8V21.34H232.6a7.99,7.99,0,0,1,6.5,3.343l4.675-5.57,13.01,12.835-216.5,256.4ZM16,257.143H43.987L91.108,201l-8.317-24.951H16Zm43.213-97.1H88.559a7.994,7.994,0,0,1,7.592,5.472l7.033,21.1L156.832,122.7H59.217Zm-41.117,0H43.213V114.7a8.012,8.012,0,0,1,8-8h8V61.351a8.012,8.012,0,0,1,8-8h8v-16H46.887ZM75.222,106.7h95.044l27.66-32.953V69.354H75.222Zm122.7-53.348h8a8,8,0,0,1,6.414,3.221l14.4-17.16-.485-2.066H197.925Zm-106.7,0h90.694V16H91.227Zm-27.04,219.8,13.514-16H257.143V176.052H190.355l-8.846,26.537a7.992,7.992,0,0,1-7.592,5.472H119.146l13.514-16H168.15L177,165.519a7.993,7.993,0,0,1,7.592-5.472H213.93V122.7H191.224l22.706-26.89V106.7h8a8.012,8.012,0,0,1,8,8v45.346h25.113L234.314,71.672l12.865-15.235,25.757,109.785a8.013,8.013,0,0,1,.211,1.828v97.095a8.012,8.012,0,0,1-8,8Zm35.042-33.077A7.985,7.985,0,0,1,93.862,238l11.77-13.938h68.286a8,8,0,1,1,0,16Z"/>
</svg>
